<?xml version="1.0" encoding="utf-8"?>
<svg xmlns="http://www.w3.org/2000/svg" style="margin: auto; display: block; shape-rendering: auto;" width="289" height="26" preserveAspectRatio="xMidYMid">
<style type="text/css">
  text {
    text-anchor: middle; font-size: 25px; opacity: 0;
  }
</style>
<g style="transform-origin: 144.5px 13px; transform: scale(0.3125);">
<g transform="translate(144.5,13)">
  <g transform="translate(0,0)"><g class="path" style="transform: scale(0.91); transform-origin: -390.28px -2.48615px; animation: 1s linear -0.634615s infinite normal forwards running breath-ad21a97a-9700-4070-af94-ceb564b787e8;"><path d="M70.08-4.16L70.08-4.16Q66.32 0.24 59.96 2.88L59.96 2.88L59.96 2.88Q53.60 5.52 46.92 5.52L46.92 5.52L46.92 5.52Q40.24 5.52 35.60 4.24L35.60 4.24L35.60 4.24Q30.08 8.16 23.84 8.16L23.84 8.16L23.84 6.64L23.84 6.64Q26.96 6.56 28.36 5.80L28.36 5.80L28.36 5.80Q29.76 5.04 30.80 2.56L30.80 2.56L30.80 2.56Q26.64 0.72 23.52-2.12L23.52-2.12L23.52-2.12Q20.40-4.96 19.32-6.72L19.32-6.72L19.32-6.72Q18.24-8.48 18.24-8.80L18.24-8.80L19.68-9.36L19.68-9.36Q19.68-9.04 20.68-7.44L20.68-7.44L20.68-7.44Q21.68-5.84 24.60-3.16L24.60-3.16L24.60-3.16Q27.52-0.48 31.36 1.20L31.36 1.20L31.36 1.20Q32.48-1.60 33.20-5.76L33.20-5.76L40.32-46.88L40.32-46.88Q32-46.24 25.60-43.60L25.60-43.60L25.60-43.60Q31.04-37.84 31.04-29.84L31.04-29.84L31.04-29.84Q31.04-22.48 27.08-18.04L27.08-18.04L27.08-18.04Q23.12-13.60 18.32-13.60L18.32-13.60L18.32-13.60Q13.52-13.60 10.96-16.52L10.96-16.52L10.96-16.52Q8.40-19.44 8.40-23.44L8.40-23.44L8.40-23.44Q8.40-29.68 11.92-35.16L11.92-35.16L11.92-35.16Q15.44-40.64 22.80-44.16L22.80-44.16L22.80-44.16Q17.52-48.64 8.88-50.08L8.88-50.08L9.20-51.60L9.20-51.60Q18.88-49.84 24.32-44.80L24.32-44.80L24.32-44.80Q34-48.72 47.96-48.72L47.96-48.72L47.96-48.72Q61.92-48.72 69.92-42.36L69.92-42.36L69.92-42.36Q77.92-36 77.92-24.64L77.92-24.64L77.92-24.64Q77.92-13.04 70.08-4.16L70.08-4.16zM45.60 4.08L45.60 4.08L45.60 4.08Q53.20 4.08 59.28 1.56L59.28 1.56L59.28 1.56Q65.36-0.96 68.96-5.12L68.96-5.12L68.96-5.12Q76.40-13.60 76.40-24.12L76.40-24.12L76.40-24.12Q76.40-34.64 69.52-40.56L69.52-40.56L69.52-40.56Q62.64-46.48 50.32-47.12L50.32-47.12L50.32-47.12Q46.40-20.64 44.16-9.04L44.16-9.04L44.16-9.04Q42.72-1.68 37.12 3.12L37.12 3.12L37.12 3.12Q41.36 4.08 45.60 4.08zM9.92-23.44L9.92-23.44L9.92-23.44Q9.92-20.16 12.04-17.64L12.04-17.64L12.04-17.64Q14.16-15.12 18.36-15.12L18.36-15.12L18.36-15.12Q22.56-15.12 25.76-18.80L25.76-18.80L25.76-18.80Q28.96-22.48 29.44-28.16L29.44-28.16L29.44-28.16Q29.52-29.20 29.52-30.24L29.52-30.24L29.52-30.24Q29.52-37.44 24-42.96L24-42.96L24-42.96Q16.80-39.68 13.36-34.52L13.36-34.52L13.36-34.52Q9.92-29.36 9.92-23.44" fill="#a80909" stroke="none" stroke-width="none" transform="translate(-433.44000244140625,19.233846153846166)" style="fill: rgb(168, 9, 9);"></path></g><g class="path" style="transform: scale(0.91); transform-origin: -333.84px 4.03385px; animation: 1s linear -0.609231s infinite normal forwards running breath-ad21a97a-9700-4070-af94-ceb564b787e8;"><path d="M110.56 0.72L110.56 0.72L110.56 0.72Q103.52 0.72 102.88-5.44L102.88-5.44L102.88-5.44Q99.36 0.72 94 0.72L94 0.72L94 0.72Q88.64 0.72 85.48-2.52L85.48-2.52L85.48-2.52Q82.32-5.76 82.32-11.60L82.32-11.60L82.32-11.60Q82.32-20.72 86.80-25.92L86.80-25.92L86.80-25.92Q91.28-31.12 98.40-31.12L98.40-31.12L98.40-31.12Q104.24-31.12 106.16-25.60L106.16-25.60L106.16-25.60Q106.56-28 107.04-30.40L107.04-30.40L107.04-30.40Q112.96-30.40 115.84-30.88L115.84-30.88L116.88-31.12L111.36-0.88L111.36-0.88Q113.76-1.12 115.36-3.12L115.36-3.12L116.56-2.16L116.56-2.16Q114.16 0.72 110.56 0.72zM91.36-7.52L91.36-7.52Q91.36-3.92 92.28-2.52L92.28-2.52L92.28-2.52Q93.20-1.12 95.12-1.12L95.12-1.12L95.12-1.12Q97.04-1.12 99.04-3.20L99.04-3.20L99.04-3.20Q101.68-5.92 103.28-10.08L103.28-10.08L103.28-10.08Q103.52-11.12 104.20-15.08L104.20-15.08L104.20-15.08Q104.88-19.04 105.36-21.60L105.36-21.60L105.36-21.60Q105.12-24.64 103.68-26.88L103.68-26.88L103.68-26.88Q102.24-29.12 100.08-29.12L100.08-29.12L100.08-29.12Q96.16-29.12 93.76-22.12L93.76-22.12L93.76-22.12Q91.36-15.12 91.36-7.52L91.36-7.52" fill="#a80909" stroke="none" stroke-width="none" transform="translate(-433.44000244140625,19.233846153846166)" style="fill: rgb(214, 46, 46);"></path></g><g class="path" style="transform: scale(0.91); transform-origin: -299.84px -1.88615px; animation: 1s linear -0.583846s infinite normal forwards running breath-ad21a97a-9700-4070-af94-ceb564b787e8;"><path d="M121.92-30.40L126-30.40L128.16-42.24L128.16-42.24Q134.08-42.24 136.96-42.72L136.96-42.72L138-42.96L138-42.96Q136.88-37.36 135.52-30.40L135.52-30.40L145.44-30.40L145.28-28.96L135.28-28.96L135.28-28.96Q131.28-8.32 131.28-4.08L131.28-4.08L131.28-4.08Q131.28-1.52 134-1.52L134-1.52L134-1.52Q136.72-1.52 138.96-4.96L138.96-4.96L138.96-4.96Q141.20-8.40 142.16-12.40L142.16-12.40L143.60-11.92L143.60-11.92Q140.64 0.72 131.36 0.72L131.36 0.72L131.36 0.72Q127.52 0.72 124.96-1.40L124.96-1.40L124.96-1.40Q122.40-3.52 122.40-7.32L122.40-7.32L122.40-7.32Q122.40-11.12 125.68-28.96L125.68-28.96L121.76-28.96L121.92-30.40" fill="#a80909" stroke="none" stroke-width="none" transform="translate(-433.44000244140625,19.233846153846166)" style="fill: rgb(252, 92, 92);"></path></g><g class="path" style="transform: scale(0.91); transform-origin: -272.88px 4.03385px; animation: 1s linear -0.558462s infinite normal forwards running breath-ad21a97a-9700-4070-af94-ceb564b787e8;"><path d="M164.08-31.12L164.08-31.12L164.08-31.12Q174.24-31.12 174.24-23.04L174.24-23.04L174.24-23.04Q174.24-18 169.48-15.40L169.48-15.40L169.48-15.40Q164.72-12.80 155.92-12.72L155.92-12.72L155.92-12.72Q155.76-9.84 155.76-8.16L155.76-8.16L155.76-8.16Q155.76-4.56 157.40-2.84L157.40-2.84L157.40-2.84Q159.04-1.12 161.52-1.12L161.52-1.12L161.52-1.12Q164-1.12 166.04-2.08L166.04-2.08L166.04-2.08Q168.08-3.04 169.28-4.36L169.28-4.36L169.28-4.36Q170.48-5.68 171.36-7.12L171.36-7.12L171.36-7.12Q172.96-9.76 172.96-10.48L172.96-10.48L174.40-9.84L174.40-9.84Q174.16-8.56 172.96-6.44L172.96-6.44L172.96-6.44Q171.76-4.32 170.32-2.96L170.32-2.96L170.32-2.96Q168.88-1.60 166.08-0.44L166.08-0.44L166.08-0.44Q163.28 0.72 159.84 0.72L159.84 0.72L159.84 0.72Q153.36 0.72 150.04-2.36L150.04-2.36L150.04-2.36Q146.72-5.44 146.72-10.80L146.72-10.80L146.72-10.80Q146.72-20.32 151.44-25.72L151.44-25.72L151.44-25.72Q156.16-31.12 164.08-31.12zM172.24-23.04L172.24-23.04Q172.24-25.68 170.68-27.40L170.68-27.40L170.68-27.40Q169.12-29.12 166.04-29.12L166.04-29.12L166.04-29.12Q162.96-29.12 160.04-25.44L160.04-25.44L160.04-25.44Q157.12-21.76 156.16-14.56L156.16-14.56L156.16-14.56Q172.24-14.64 172.24-23.04L172.24-23.04" fill="#a80909" stroke="none" stroke-width="none" transform="translate(-433.44000244140625,19.233846153846166)" style="fill: rgb(255, 0, 0);"></path></g><g class="path" style="transform: scale(0.91); transform-origin: -236.68px 4.03385px; animation: 1s linear -0.533077s infinite normal forwards running breath-ad21a97a-9700-4070-af94-ceb564b787e8;"><path d="M209.52-0.88L209.52-0.88L209.52-0.88Q211.44-0.88 213.52-3.12L213.52-3.12L214.72-2.16L214.72-2.16Q214.16-1.04 212.24-0.16L212.24-0.16L212.24-0.16Q210.32 0.72 208 0.72L208 0.72L208 0.72Q200.72 0.72 200.72-5.84L200.72-5.84L200.72-5.84Q200.72-8.64 202.16-15.84L202.16-15.84L202.16-15.84Q203.60-23.04 203.60-25.28L203.60-25.28L203.60-25.28Q203.60-28.72 200.32-28.72L200.32-28.72L200.32-28.72Q197.68-28.72 195.24-25.28L195.24-25.28L195.24-25.28Q192.80-21.84 191.20-15.84L191.20-15.84L188.48-0.88L188.48-0.88Q190.96-1.12 192.56-3.12L192.56-3.12L193.76-2.16L193.76-2.16Q191.36 0.72 187.76 0.72L187.76 0.72L187.76 0.72Q184.16 0.72 182.12-1.12L182.12-1.12L182.12-1.12Q180.08-2.96 180.08-5.92L180.08-5.92L180.08-5.92Q180.08-7.04 181.36-14.72L181.36-14.72L184-29.52L184-29.52Q181.60-29.28 180-27.28L180-27.28L178.80-28.24L178.80-28.24Q181.20-31.12 184.84-31.12L184.84-31.12L184.84-31.12Q188.48-31.12 190.48-29.28L190.48-29.28L190.48-29.28Q192.48-27.44 192.48-24.08L192.48-24.08L192.48-23.60L192.48-23.60Q195.76-31.12 202.72-31.12L202.72-31.12L202.72-31.12Q207.44-31.12 210.08-28.44L210.08-28.44L210.08-28.44Q212.72-25.76 212.72-21.04L212.72-21.04L212.72-21.04Q212.72-18.56 211.20-11.48L211.20-11.48L211.20-11.48Q209.68-4.40 209.52-0.88" fill="#a80909" stroke="none" stroke-width="none" transform="translate(-433.44000244140625,19.233846153846166)" style="fill: rgb(168, 9, 9);"></path></g><g class="path" style="transform: scale(0.91); transform-origin: -172.48px 4.03385px; animation: 1s linear -0.507692s infinite normal forwards running breath-ad21a97a-9700-4070-af94-ceb564b787e8;"><path d="M276.24-21.20L276.24-21.20L276.24-21.20Q274.56-22.88 274.56-25.28L274.56-25.28L274.56-25.28Q274.56-27.68 276.24-29.40L276.24-29.40L276.24-29.40Q277.92-31.12 280.04-31.12L280.04-31.12L280.04-31.12Q282.16-31.12 283.64-30.04L283.64-30.04L283.64-30.04Q285.12-28.96 285.76-27.28L285.76-27.28L285.76-27.28Q285.84-27.20 285.84-27.12L285.84-27.12L285.84-27.04L285.84-27.04Q286.80-24.96 286.80-21.32L286.80-21.32L286.80-21.32Q286.80-17.68 286.32-15.12L286.32-15.12L286.32-15.12Q285.84-12.56 284.56-9.68L284.56-9.68L284.56-9.68Q283.28-6.80 281.44-4.52L281.44-4.52L281.44-4.52Q279.60-2.24 276.52-0.76L276.52-0.76L276.52-0.76Q273.44 0.72 269.68 0.72L269.68 0.72L269.68 0.72Q263.28 0.72 260.08-3.92L260.08-3.92L260.08-3.92Q256.24 0.72 249.60 0.72L249.60 0.72L249.60 0.72Q244.48 0.72 241.24-2.48L241.24-2.48L241.24-2.48Q238.00-5.68 238.00-9.84L238.00-9.84L238.00-9.84Q238.00-14 239.48-20.12L239.48-20.12L239.48-20.12Q240.96-26.24 241.12-29.52L241.12-29.52L241.12-29.52Q239.84-29.44 238.64-28.60L238.64-28.60L238.64-28.60Q237.44-27.76 236.88-26.96L236.88-26.96L236.32-26.16L235.12-27.12L235.12-27.12Q235.36-27.60 235.84-28.24L235.84-28.24L235.84-28.24Q236.32-28.88 238.28-30L238.28-30L238.28-30Q240.24-31.12 243.20-31.12L243.20-31.12L243.20-31.12Q246.16-31.12 247.96-29.20L247.96-29.20L247.96-29.20Q249.76-27.28 249.76-24.32L249.76-24.32L249.76-24.32Q249.76-21.36 248.16-15.16L248.16-15.16L248.16-15.16Q246.56-8.96 246.56-6.44L246.56-6.44L246.56-6.44Q246.56-3.92 247.72-2.48L247.72-2.48L247.72-2.48Q248.88-1.04 251.04-1.04L251.04-1.04L251.04-1.04Q255.68-1.04 258.96-5.84L258.96-5.84L258.96-5.84Q258.08-8.08 258.08-11.04L258.08-11.04L258.08-11.04Q258.08-14 259.56-20.12L259.56-20.12L259.56-20.12Q261.04-26.24 261.20-29.52L261.20-29.52L261.20-29.52Q259.92-29.44 258.72-28.60L258.72-28.60L258.72-28.60Q257.52-27.76 256.96-26.96L256.96-26.96L256.40-26.16L255.20-27.12L255.20-27.12Q255.44-27.60 255.92-28.24L255.92-28.24L255.92-28.24Q256.40-28.88 258.36-30L258.36-30L258.36-30Q260.32-31.12 263.28-31.12L263.28-31.12L263.28-31.12Q266.24-31.12 268.04-29.20L268.04-29.20L268.04-29.20Q269.84-27.28 269.84-24.32L269.84-24.32L269.84-24.32Q269.84-21.36 268.24-15.16L268.24-15.16L268.24-15.16Q266.64-8.96 266.64-6.44L266.64-6.44L266.64-6.44Q266.64-3.92 267.80-2.48L267.80-2.48L267.80-2.48Q268.96-1.04 271.12-1.04L271.12-1.04L271.12-1.04Q276.48-1.04 280.72-6.84L280.72-6.84L280.72-6.84Q284.96-12.64 284.96-19.92L284.96-19.92L284.96-19.92Q284.96-20.48 284.80-21.60L284.80-21.60L284.80-21.60Q283.12-19.52 280.52-19.52L280.52-19.52L280.52-19.52Q277.92-19.52 276.24-21.20" fill="#a80909" stroke="none" stroke-width="none" transform="translate(-433.44000244140625,19.233846153846166)" style="fill: rgb(214, 46, 46);"></path></g><g class="path" style="transform: scale(0.91); transform-origin: -129.04px 4.03385px; animation: 1s linear -0.482308s infinite normal forwards running breath-ad21a97a-9700-4070-af94-ceb564b787e8;"><path d="M307.92-31.12L307.92-31.12L307.92-31.12Q318.08-31.12 318.08-23.04L318.08-23.04L318.08-23.04Q318.08-18 313.32-15.40L313.32-15.40L313.32-15.40Q308.56-12.80 299.76-12.72L299.76-12.72L299.76-12.72Q299.60-9.84 299.60-8.16L299.60-8.16L299.60-8.16Q299.60-4.56 301.24-2.84L301.24-2.84L301.24-2.84Q302.88-1.12 305.36-1.12L305.36-1.12L305.36-1.12Q307.84-1.12 309.88-2.08L309.88-2.08L309.88-2.08Q311.92-3.04 313.12-4.36L313.12-4.36L313.12-4.36Q314.32-5.68 315.20-7.12L315.20-7.12L315.20-7.12Q316.80-9.76 316.80-10.48L316.80-10.48L318.24-9.84L318.24-9.84Q318.00-8.56 316.80-6.44L316.80-6.44L316.80-6.44Q315.60-4.32 314.16-2.96L314.16-2.96L314.16-2.96Q312.72-1.60 309.92-0.44L309.92-0.44L309.92-0.44Q307.12 0.72 303.68 0.72L303.68 0.72L303.68 0.72Q297.20 0.72 293.88-2.36L293.88-2.36L293.88-2.36Q290.56-5.44 290.56-10.80L290.56-10.80L290.56-10.80Q290.56-20.32 295.28-25.72L295.28-25.72L295.28-25.72Q300.00-31.12 307.92-31.12zM316.08-23.04L316.08-23.04Q316.08-25.68 314.52-27.40L314.52-27.40L314.52-27.40Q312.96-29.12 309.88-29.12L309.88-29.12L309.88-29.12Q306.80-29.12 303.88-25.44L303.88-25.44L303.88-25.44Q300.96-21.76 300.00-14.56L300.00-14.56L300.00-14.56Q316.08-14.64 316.08-23.04L316.08-23.04" fill="#a80909" stroke="none" stroke-width="none" transform="translate(-433.44000244140625,19.233846153846166)" style="fill: rgb(252, 92, 92);"></path></g><g class="path" style="transform: scale(0.91); transform-origin: -96px 3.67385px; animation: 1s linear -0.456923s infinite normal forwards running breath-ad21a97a-9700-4070-af94-ceb564b787e8;"><path d="M324.08-27.28L322.88-28.24L322.88-28.24Q325.28-31.12 328.92-31.12L328.92-31.12L328.92-31.12Q332.56-31.12 334.56-29.28L334.56-29.28L334.56-29.28Q336.56-27.44 336.56-24.08L336.56-24.08L336.56-23.60L336.56-23.60Q340.16-31.12 345.92-31.12L345.92-31.12L345.92-31.12Q352.08-31.12 352.08-24.72L352.08-24.72L352.08-24.72Q352.08-22.08 350.32-19.12L350.32-19.12L350.32-19.12Q348.56-16.16 346.80-13.48L346.80-13.48L346.80-13.48Q345.04-10.80 345.04-8.72L345.04-8.72L343.12-8.72L343.12-8.72Q343.12-11.68 346.56-16.72L346.56-16.72L346.56-16.72Q350.00-21.76 350.00-24.52L350.00-24.52L350.00-24.52Q350.00-27.28 348.92-28.28L348.92-28.28L348.92-28.28Q347.84-29.28 345.72-29.28L345.72-29.28L345.72-29.28Q343.60-29.28 341.56-27.44L341.56-27.44L341.56-27.44Q339.52-25.60 338.16-22.80L338.16-22.80L338.16-22.80Q336.00-18.64 335.28-16L335.28-16L335.28-15.92L332.40 0L322.80 0L328.08-29.52L328.08-29.52Q325.68-29.28 324.08-27.28L324.08-27.28" fill="#a80909" stroke="none" stroke-width="none" transform="translate(-433.44000244140625,19.233846153846166)" style="fill: rgb(255, 0, 0);"></path></g><g class="path" style="transform: scale(0.91); transform-origin: -61.56px -6.32615px; animation: 1s linear -0.431538s infinite normal forwards running breath-ad21a97a-9700-4070-af94-ceb564b787e8;"><path d="M381.52 0.72L381.52 0.72L381.52 0.72Q374.48 0.72 373.84-5.28L373.84-5.28L373.84-5.28Q370.32 0.72 364.88 0.72L364.88 0.72L364.88 0.72Q359.44 0.72 356.56-2.36L356.56-2.36L356.56-2.36Q353.68-5.44 353.68-10.80L353.68-10.80L353.68-10.80Q353.68-20.24 358.16-25.68L358.16-25.68L358.16-25.68Q362.64-31.12 369.76-31.12L369.76-31.12L369.76-31.12Q373.84-31.12 376.08-28.64L376.08-28.64L376.08-28.64Q377.04-27.36 377.28-26.72L377.28-26.72L381.60-50.24L381.60-50.24Q379.20-50 377.60-48L377.60-48L376.40-48.96L376.40-48.96Q378.80-51.84 382.44-51.84L382.44-51.84L382.44-51.84Q386.08-51.84 388.08-50L388.08-50L388.08-50Q390.08-48.16 390.08-44.80L390.08-44.80L390.08-44.80Q390.08-44.16 389.92-42.72L389.92-42.72L389.92-42.72Q386.00-20.72 382.32-0.88L382.32-0.88L382.32-0.88Q384.72-1.12 386.32-3.12L386.32-3.12L387.52-2.16L387.52-2.16Q385.12 0.72 381.52 0.72zM362.72-7.52L362.72-7.52Q362.72-3.84 363.48-2.48L363.48-2.48L363.48-2.48Q364.24-1.12 365.88-1.12L365.88-1.12L365.88-1.12Q367.52-1.12 369.04-2.24L369.04-2.24L369.04-2.24Q370.56-3.36 371.60-5.12L371.60-5.12L371.60-5.12Q373.52-8.08 374.32-10.16L374.32-10.16L376.64-22.80L376.64-22.80Q376.48-25.36 374.96-27.48L374.96-27.48L374.96-27.48Q373.44-29.60 369.76-29.60L369.76-29.60L369.76-29.60Q367.20-29.60 364.96-22.08L364.96-22.08L364.96-22.08Q362.72-14.56 362.72-7.52L362.72-7.52" fill="#a80909" stroke="none" stroke-width="none" transform="translate(-433.44000244140625,19.233846153846166)" style="fill: rgb(168, 9, 9);"></path></g><g class="path" style="transform: scale(0.91); transform-origin: -27.44px 4.03385px; animation: 1s linear -0.406154s infinite normal forwards running breath-ad21a97a-9700-4070-af94-ceb564b787e8;"><path d="M409.52-31.12L409.52-31.12L409.52-31.12Q419.68-31.12 419.68-23.04L419.68-23.04L419.68-23.04Q419.68-18 414.92-15.40L414.92-15.40L414.92-15.40Q410.16-12.80 401.36-12.72L401.36-12.72L401.36-12.72Q401.20-9.84 401.20-8.16L401.20-8.16L401.20-8.16Q401.20-4.56 402.84-2.84L402.84-2.84L402.84-2.84Q404.48-1.12 406.96-1.12L406.96-1.12L406.96-1.12Q409.44-1.12 411.48-2.08L411.48-2.08L411.48-2.08Q413.52-3.04 414.72-4.36L414.72-4.36L414.72-4.36Q415.92-5.68 416.80-7.12L416.80-7.12L416.80-7.12Q418.40-9.76 418.40-10.48L418.40-10.48L419.84-9.84L419.84-9.84Q419.60-8.56 418.40-6.44L418.40-6.44L418.40-6.44Q417.20-4.32 415.76-2.96L415.76-2.96L415.76-2.96Q414.32-1.60 411.52-0.44L411.52-0.44L411.52-0.44Q408.72 0.72 405.28 0.72L405.28 0.72L405.28 0.72Q398.80 0.72 395.48-2.36L395.48-2.36L395.48-2.36Q392.16-5.44 392.16-10.80L392.16-10.80L392.16-10.80Q392.16-20.32 396.88-25.72L396.88-25.72L396.88-25.72Q401.60-31.12 409.52-31.12zM417.68-23.04L417.68-23.04Q417.68-25.68 416.12-27.40L416.12-27.40L416.12-27.40Q414.56-29.12 411.48-29.12L411.48-29.12L411.48-29.12Q408.40-29.12 405.48-25.44L405.48-25.44L405.48-25.44Q402.56-21.76 401.60-14.56L401.60-14.56L401.60-14.56Q417.68-14.64 417.68-23.04L417.68-23.04" fill="#a80909" stroke="none" stroke-width="none" transform="translate(-433.44000244140625,19.233846153846166)" style="fill: rgb(214, 46, 46);"></path></g><g class="path" style="transform: scale(0.91); transform-origin: 8.75999px 4.03385px; animation: 1s linear -0.380769s infinite normal forwards running breath-ad21a97a-9700-4070-af94-ceb564b787e8;"><path d="M454.96-0.88L454.96-0.88L454.96-0.88Q456.88-0.88 458.96-3.12L458.96-3.12L460.16-2.16L460.16-2.16Q459.60-1.04 457.68-0.16L457.68-0.16L457.68-0.16Q455.76 0.72 453.44 0.72L453.44 0.72L453.44 0.72Q446.16 0.72 446.16-5.84L446.16-5.84L446.16-5.84Q446.16-8.64 447.60-15.84L447.60-15.84L447.60-15.84Q449.04-23.04 449.04-25.28L449.04-25.28L449.04-25.28Q449.04-28.72 445.76-28.72L445.76-28.72L445.76-28.72Q443.12-28.72 440.68-25.28L440.68-25.28L440.68-25.28Q438.24-21.84 436.64-15.84L436.64-15.84L433.92-0.88L433.92-0.88Q436.40-1.12 438-3.12L438-3.12L439.20-2.16L439.20-2.16Q436.80 0.72 433.20 0.72L433.20 0.72L433.20 0.72Q429.60 0.72 427.56-1.12L427.56-1.12L427.56-1.12Q425.52-2.96 425.52-5.92L425.52-5.92L425.52-5.92Q425.52-7.04 426.80-14.72L426.80-14.72L429.44-29.52L429.44-29.52Q427.04-29.28 425.44-27.28L425.44-27.28L424.24-28.24L424.24-28.24Q426.64-31.12 430.28-31.12L430.28-31.12L430.28-31.12Q433.92-31.12 435.92-29.28L435.92-29.28L435.92-29.28Q437.92-27.44 437.92-24.08L437.92-24.08L437.92-23.60L437.92-23.60Q441.20-31.12 448.16-31.12L448.16-31.12L448.16-31.12Q452.88-31.12 455.52-28.44L455.52-28.44L455.52-28.44Q458.16-25.76 458.16-21.04L458.16-21.04L458.16-21.04Q458.16-18.56 456.64-11.48L456.64-11.48L456.64-11.48Q455.12-4.40 454.96-0.88" fill="#a80909" stroke="none" stroke-width="none" transform="translate(-433.44000244140625,19.233846153846166)" style="fill: rgb(252, 92, 92);"></path></g><g class="path" style="transform: scale(0.91); transform-origin: 65.16px 4.03385px; animation: 1s linear -0.355385s infinite normal forwards running breath-ad21a97a-9700-4070-af94-ceb564b787e8;"><path d="M485.92-29.52L485.92-29.52L485.92-29.52Q484-29.52 481.92-27.28L481.92-27.28L480.72-28.24L480.72-28.24Q481.28-29.36 483.20-30.24L483.20-30.24L483.20-30.24Q485.12-31.12 487.44-31.12L487.44-31.12L487.44-31.12Q494.72-31.12 494.72-24.56L494.72-24.56L494.72-24.56Q494.72-21.76 493.28-14.56L493.28-14.56L493.28-14.56Q491.84-7.36 491.84-5.12L491.84-5.12L491.84-5.12Q491.84-1.68 495.12-1.68L495.12-1.68L495.12-1.68Q497.44-1.68 499.64-4.40L499.64-4.40L499.64-4.40Q501.84-7.12 503.44-11.92L503.44-11.92L506.80-30.40L506.80-30.40Q512.72-30.40 515.44-30.88L515.44-30.88L516.48-31.12L511.12-0.88L511.12-0.88Q513.52-1.12 515.12-3.12L515.12-3.12L516.32-2.16L516.32-2.16Q513.92 0.72 510.32 0.72L510.32 0.72L510.32 0.72Q506.72 0.72 504.72-1.04L504.72-1.04L504.72-1.04Q502.72-2.80 502.64-6L502.64-6L502.64-6Q499.28 0.72 492.72 0.72L492.72 0.72L492.72 0.72Q488 0.72 485.36-1.96L485.36-1.96L485.36-1.96Q482.72-4.64 482.72-9.36L482.72-9.36L482.72-9.36Q482.72-11.84 484.24-18.92L484.24-18.92L484.24-18.92Q485.76-26 485.92-29.52" fill="#a80909" stroke="none" stroke-width="none" transform="translate(-433.44000244140625,19.233846153846166)" style="fill: rgb(255, 0, 0);"></path></g><g class="path" style="transform: scale(0.91); transform-origin: 73.64px -20.2462px; animation: 1s linear -0.33s infinite normal forwards running breath-ad21a97a-9700-4070-af94-ceb564b787e8;"><path d="M507-34.80L507-34.80L507-34.80Q505.04-34.80 503.72-36.12L503.72-36.12L503.72-36.12Q502.40-37.44 502.40-39.40L502.40-39.40L502.40-39.40Q502.40-41.36 503.76-42.76L503.76-42.76L503.76-42.76Q505.12-44.16 507.04-44.16L507.04-44.16L507.04-44.16Q508.96-44.16 510.36-42.76L510.36-42.76L510.36-42.76Q511.76-41.36 511.76-39.44L511.76-39.44L511.76-39.44Q511.76-37.52 510.36-36.16L510.36-36.16L510.36-36.16Q508.96-34.80 507-34.80" fill="#a80909" stroke="none" stroke-width="none" transform="translate(-433.44000244140625,19.233846153846166)" style="fill: rgb(168, 9, 9);"></path></g><g class="path" style="transform: scale(0.91); transform-origin: 60.84px -20.2462px; animation: 1s linear -0.304615s infinite normal forwards running breath-ad21a97a-9700-4070-af94-ceb564b787e8;"><path d="M494.20-34.80L494.20-34.80L494.20-34.80Q492.24-34.80 490.92-36.12L490.92-36.12L490.92-36.12Q489.60-37.44 489.60-39.40L489.60-39.40L489.60-39.40Q489.60-41.36 490.96-42.76L490.96-42.76L490.96-42.76Q492.32-44.16 494.24-44.16L494.24-44.16L494.24-44.16Q496.16-44.16 497.56-42.76L497.56-42.76L497.56-42.76Q498.96-41.36 498.96-39.44L498.96-39.44L498.96-39.44Q498.96-37.52 497.56-36.16L497.56-36.16L497.56-36.16Q496.16-34.80 494.20-34.80" fill="#a80909" stroke="none" stroke-width="none" transform="translate(-433.44000244140625,19.233846153846166)" style="fill: rgb(214, 46, 46);"></path></g><g class="path" style="transform: scale(0.91); transform-origin: 103.4px -5.60616px; animation: 1s linear -0.279231s infinite normal forwards running breath-ad21a97a-9700-4070-af94-ceb564b787e8;"><path d="M535.44 0.72L535.44 0.72L535.44 0.72Q530.40 0.72 528.08-2.64L528.08-2.64L521.36 2.16L519.84 2.16L528.80-50.24L528.80-50.24Q526.40-50 524.80-48L524.80-48L523.60-48.96L523.60-48.96Q526-51.84 529.64-51.84L529.64-51.84L529.64-51.84Q533.28-51.84 535.28-50L535.28-50L535.28-50Q537.28-48.16 537.28-44.80L537.28-44.80L537.28-44.80Q537.28-44.16 537.12-42.72L537.12-42.72L537.12-42.72Q535.84-35.60 534-25.60L534-25.60L534-25.60Q537.36-31.04 542.72-31.04L542.72-31.04L542.72-31.04Q548.08-31.04 550.96-27.96L550.96-27.96L550.96-27.96Q553.84-24.88 553.84-19.52L553.84-19.52L553.84-19.52Q553.84-10.08 548.72-4.68L548.72-4.68L548.72-4.68Q543.60 0.72 535.44 0.72zM534.88-1.44L534.88-1.44L534.88-1.44Q539.28-1.44 542.04-7.56L542.04-7.56L542.04-7.56Q544.80-13.68 544.80-22.80L544.80-22.80L544.80-22.80Q544.80-26.48 544.04-27.84L544.04-27.84L544.04-27.84Q543.28-29.20 541.28-29.20L541.28-29.20L541.28-29.20Q539.28-29.20 537.16-26.80L537.16-26.80L537.16-26.80Q535.04-24.40 534.08-22.28L534.08-22.28L534.08-22.28Q533.12-20.16 533.12-19.84L533.12-19.84L532.96-19.84L532.96-19.84Q530.96-9.36 530-4L530-4L530-4Q531.36-1.44 534.88-1.44" fill="#a80909" stroke="none" stroke-width="none" transform="translate(-433.44000244140625,19.233846153846166)" style="fill: rgb(252, 92, 92);"></path></g><g class="path" style="transform: scale(0.91); transform-origin: 138.08px 4.03385px; animation: 1s linear -0.253846s infinite normal forwards running breath-ad21a97a-9700-4070-af94-ceb564b787e8;"><path d="M575.04-31.12L575.04-31.12L575.04-31.12Q585.20-31.12 585.20-23.04L585.20-23.04L585.20-23.04Q585.20-18 580.44-15.40L580.44-15.40L580.44-15.40Q575.68-12.80 566.88-12.72L566.88-12.72L566.88-12.72Q566.72-9.84 566.72-8.16L566.72-8.16L566.72-8.16Q566.72-4.56 568.36-2.84L568.36-2.84L568.36-2.84Q570-1.12 572.48-1.12L572.48-1.12L572.48-1.12Q574.96-1.12 577-2.08L577-2.08L577-2.08Q579.04-3.04 580.24-4.36L580.24-4.36L580.24-4.36Q581.44-5.68 582.32-7.12L582.32-7.12L582.32-7.12Q583.92-9.76 583.92-10.48L583.92-10.48L585.36-9.84L585.36-9.84Q585.12-8.56 583.92-6.44L583.92-6.44L583.92-6.44Q582.72-4.32 581.28-2.96L581.28-2.96L581.28-2.96Q579.84-1.60 577.04-0.44L577.04-0.44L577.04-0.44Q574.24 0.72 570.80 0.72L570.80 0.72L570.80 0.72Q564.32 0.72 561-2.36L561-2.36L561-2.36Q557.68-5.44 557.68-10.80L557.68-10.80L557.68-10.80Q557.68-20.32 562.40-25.72L562.40-25.72L562.40-25.72Q567.12-31.12 575.04-31.12zM583.20-23.04L583.20-23.04Q583.20-25.68 581.64-27.40L581.64-27.40L581.64-27.40Q580.08-29.12 577-29.12L577-29.12L577-29.12Q573.92-29.12 571-25.44L571-25.44L571-25.44Q568.08-21.76 567.12-14.56L567.12-14.56L567.12-14.56Q583.20-14.64 583.20-23.04L583.20-23.04" fill="#a80909" stroke="none" stroke-width="none" transform="translate(-433.44000244140625,19.233846153846166)" style="fill: rgb(255, 0, 0);"></path></g><g class="path" style="transform: scale(0.91); transform-origin: 171.12px 3.67385px; animation: 1s linear -0.228462s infinite normal forwards running breath-ad21a97a-9700-4070-af94-ceb564b787e8;"><path d="M591.20-27.28L590-28.24L590-28.24Q592.40-31.12 596.04-31.12L596.04-31.12L596.04-31.12Q599.68-31.12 601.68-29.28L601.68-29.28L601.68-29.28Q603.68-27.44 603.68-24.08L603.68-24.08L603.68-23.60L603.68-23.60Q607.28-31.12 613.04-31.12L613.04-31.12L613.04-31.12Q619.20-31.12 619.20-24.72L619.20-24.72L619.20-24.72Q619.20-22.08 617.44-19.12L617.44-19.12L617.44-19.12Q615.68-16.16 613.92-13.48L613.92-13.48L613.92-13.48Q612.16-10.80 612.16-8.72L612.16-8.72L610.24-8.72L610.24-8.72Q610.24-11.68 613.68-16.72L613.68-16.72L613.68-16.72Q617.12-21.76 617.12-24.52L617.12-24.52L617.12-24.52Q617.12-27.28 616.04-28.28L616.04-28.28L616.04-28.28Q614.96-29.28 612.84-29.28L612.84-29.28L612.84-29.28Q610.72-29.28 608.68-27.44L608.68-27.44L608.68-27.44Q606.64-25.60 605.28-22.80L605.28-22.80L605.28-22.80Q603.12-18.64 602.40-16L602.40-16L602.40-15.92L599.52 0L589.92 0L595.20-29.52L595.20-29.52Q592.80-29.28 591.20-27.28L591.20-27.28" fill="#a80909" stroke="none" stroke-width="none" transform="translate(-433.44000244140625,19.233846153846166)" style="fill: rgb(168, 9, 9);"></path></g><g class="path" style="transform: scale(0.91); transform-origin: 200px -1.88615px; animation: 1s linear -0.203077s infinite normal forwards running breath-ad21a97a-9700-4070-af94-ceb564b787e8;"><path d="M621.76-30.40L625.84-30.40L628-42.24L628-42.24Q633.92-42.24 636.80-42.72L636.80-42.72L637.84-42.96L637.84-42.96Q636.72-37.36 635.36-30.40L635.36-30.40L645.28-30.40L645.12-28.96L635.12-28.96L635.12-28.96Q631.12-8.32 631.12-4.08L631.12-4.08L631.12-4.08Q631.12-1.52 633.84-1.52L633.84-1.52L633.84-1.52Q636.56-1.52 638.80-4.96L638.80-4.96L638.80-4.96Q641.04-8.40 642-12.40L642-12.40L643.44-11.92L643.44-11.92Q640.48 0.72 631.20 0.72L631.20 0.72L631.20 0.72Q627.36 0.72 624.80-1.40L624.80-1.40L624.80-1.40Q622.24-3.52 622.24-7.32L622.24-7.32L622.24-7.32Q622.24-11.12 625.52-28.96L625.52-28.96L621.60-28.96L621.76-30.40" fill="#a80909" stroke="none" stroke-width="none" transform="translate(-433.44000244140625,19.233846153846166)" style="fill: rgb(214, 46, 46);"></path></g><g class="path" style="transform: scale(0.91); transform-origin: 228.24px 3.67385px; animation: 1s linear -0.177692s infinite normal forwards running breath-ad21a97a-9700-4070-af94-ceb564b787e8;"><path d="M648.32-27.28L647.12-28.24L647.12-28.24Q649.52-31.12 653.16-31.12L653.16-31.12L653.16-31.12Q656.80-31.12 658.80-29.28L658.80-29.28L658.80-29.28Q660.80-27.44 660.80-24.08L660.80-24.08L660.80-23.60L660.80-23.60Q664.40-31.12 670.16-31.12L670.16-31.12L670.16-31.12Q676.32-31.12 676.32-24.72L676.32-24.72L676.32-24.72Q676.32-22.08 674.56-19.12L674.56-19.12L674.56-19.12Q672.80-16.16 671.04-13.48L671.04-13.48L671.04-13.48Q669.28-10.80 669.28-8.72L669.28-8.72L667.36-8.72L667.36-8.72Q667.36-11.68 670.80-16.72L670.80-16.72L670.80-16.72Q674.24-21.76 674.24-24.52L674.24-24.52L674.24-24.52Q674.24-27.28 673.16-28.28L673.16-28.28L673.16-28.28Q672.08-29.28 669.96-29.28L669.96-29.28L669.96-29.28Q667.84-29.28 665.80-27.44L665.80-27.44L665.80-27.44Q663.76-25.60 662.40-22.80L662.40-22.80L662.40-22.80Q660.24-18.64 659.52-16L659.52-16L659.52-15.92L656.64 0L647.04 0L652.32-29.52L652.32-29.52Q649.92-29.28 648.32-27.28L648.32-27.28" fill="#a80909" stroke="none" stroke-width="none" transform="translate(-433.44000244140625,19.233846153846166)" style="fill: rgb(252, 92, 92);"></path></g><g class="path" style="transform: scale(0.91); transform-origin: 261.84px 4.03385px; animation: 1s linear -0.152308s infinite normal forwards running breath-ad21a97a-9700-4070-af94-ceb564b787e8;"><path d="M706.24 0.72L706.24 0.72L706.24 0.72Q699.20 0.72 698.56-5.44L698.56-5.44L698.56-5.44Q695.04 0.72 689.68 0.72L689.68 0.72L689.68 0.72Q684.32 0.72 681.16-2.52L681.16-2.52L681.16-2.52Q678-5.76 678-11.60L678-11.60L678-11.60Q678-20.72 682.48-25.92L682.48-25.92L682.48-25.92Q686.96-31.12 694.08-31.12L694.08-31.12L694.08-31.12Q699.92-31.12 701.84-25.60L701.84-25.60L701.84-25.60Q702.24-28 702.72-30.40L702.72-30.40L702.72-30.40Q708.64-30.40 711.52-30.88L711.52-30.88L712.56-31.12L707.04-0.88L707.04-0.88Q709.44-1.12 711.04-3.12L711.04-3.12L712.24-2.16L712.24-2.16Q709.84 0.72 706.24 0.72zM687.04-7.52L687.04-7.52Q687.04-3.92 687.96-2.52L687.96-2.52L687.96-2.52Q688.88-1.12 690.80-1.12L690.80-1.12L690.80-1.12Q692.72-1.12 694.72-3.20L694.72-3.20L694.72-3.20Q697.36-5.92 698.96-10.08L698.96-10.08L698.96-10.08Q699.20-11.12 699.88-15.08L699.88-15.08L699.88-15.08Q700.56-19.04 701.04-21.60L701.04-21.60L701.04-21.60Q700.80-24.64 699.36-26.88L699.36-26.88L699.36-26.88Q697.92-29.12 695.76-29.12L695.76-29.12L695.76-29.12Q691.84-29.12 689.44-22.12L689.44-22.12L689.44-22.12Q687.04-15.12 687.04-7.52L687.04-7.52" fill="#a80909" stroke="none" stroke-width="none" transform="translate(-433.44000244140625,19.233846153846166)" style="fill: rgb(255, 0, 0);"></path></g><g class="path" style="transform: scale(0.91); transform-origin: 299.44px 11.0338px; animation: 1s linear -0.126923s infinite normal forwards running breath-ad21a97a-9700-4070-af94-ceb564b787e8;"><path d="M743.04 8.72L743.04 8.72L743.04 8.72Q745.92 8.72 748 6.48L748 6.48L749.12 7.44L749.12 7.44Q747.20 10.16 743.04 10.16L743.04 10.16L743.04 10.16Q741.28 10.16 739.44 9.76L739.44 9.76L739.44 9.76Q734 14.72 725.52 14.72L725.52 14.72L725.52 14.72Q720.48 14.72 717.72 13L717.72 13L717.72 13Q714.96 11.28 714.96 8.52L714.96 8.52L714.96 8.52Q714.96 5.76 716.68 4.12L716.68 4.12L716.68 4.12Q718.40 2.48 722.80 2.48L722.80 2.48L722.80 2.48Q727.20 2.48 734.40 6.08L734.40 6.08L736.88-7.20L736.88-7.20Q733.28-0.56 727.60-0.56L727.60-0.56L727.60-0.56Q716.72-0.56 716.72-11.28L716.72-11.28L716.72-11.28Q716.72-20.24 721.24-25.68L721.24-25.68L721.24-25.68Q725.76-31.12 732.80-31.12L732.80-31.12L732.80-31.12Q736.88-31.12 739.12-28.64L739.12-28.64L739.12-28.64Q739.76-27.92 740.40-26.48L740.40-26.48L741.12-30.40L741.12-30.40Q747.04-30.40 749.76-30.88L749.76-30.88L750.80-31.12L745.52-1.60L745.52-1.60Q744.32 4.64 740.72 8.48L740.72 8.48L740.72 8.48Q741.76 8.72 743.04 8.72zM725.76-8.80L725.76-8.80Q725.76-5.12 726.48-3.88L726.48-3.88L726.48-3.88Q727.20-2.64 729.20-2.64L729.20-2.64L729.20-2.64Q731.20-2.64 733.28-4.80L733.28-4.80L733.28-4.80Q735.36-6.96 736.28-8.84L736.28-8.84L736.28-8.84Q737.20-10.72 737.84-12.48L737.84-12.48L739.52-21.68L739.52-22.24L739.52-22.24Q739.52-29.60 732.80-29.60L732.80-29.60L732.80-29.60Q730.24-29.60 728-22.64L728-22.64L728-22.64Q725.76-15.68 725.76-8.80L725.76-8.80zM725.20 13.12L725.20 13.12L725.20 13.12Q731.60 13.12 733.84 7.60L733.84 7.60L732.72 7.04L732.72 7.04Q731.76 6.56 731.56 6.44L731.56 6.44L731.56 6.44Q731.36 6.32 730.48 5.92L730.48 5.92L730.48 5.92Q729.60 5.52 729.20 5.40L729.20 5.40L729.20 5.40Q728.80 5.28 727.96 4.96L727.96 4.96L727.96 4.96Q727.12 4.64 726.56 4.52L726.56 4.52L726.56 4.52Q726 4.40 725.28 4.24L725.28 4.24L725.28 4.24Q724.08 4 721.76 4L721.76 4L721.76 4Q719.44 4 718.04 5.12L718.04 5.12L718.04 5.12Q716.64 6.24 716.64 8.40L716.64 8.40L716.64 8.40Q716.64 10.56 718.96 11.84L718.96 11.84L718.96 11.84Q721.28 13.12 725.20 13.12" fill="#a80909" stroke="none" stroke-width="none" transform="translate(-433.44000244140625,19.233846153846166)" style="fill: rgb(168, 9, 9);"></path></g><g class="path" style="transform: scale(0.91); transform-origin: 334.24px 4.03385px; animation: 1s linear -0.101538s infinite normal forwards running breath-ad21a97a-9700-4070-af94-ceb564b787e8;"><path d="M771.20-31.12L771.20-31.12L771.20-31.12Q781.36-31.12 781.36-23.04L781.36-23.04L781.36-23.04Q781.36-18 776.60-15.40L776.60-15.40L776.60-15.40Q771.84-12.80 763.04-12.72L763.04-12.72L763.04-12.72Q762.88-9.84 762.88-8.16L762.88-8.16L762.88-8.16Q762.88-4.56 764.52-2.84L764.52-2.84L764.52-2.84Q766.16-1.12 768.64-1.12L768.64-1.12L768.64-1.12Q771.12-1.12 773.16-2.08L773.16-2.08L773.16-2.08Q775.20-3.04 776.40-4.36L776.40-4.36L776.40-4.36Q777.60-5.68 778.48-7.12L778.48-7.12L778.48-7.12Q780.08-9.76 780.08-10.48L780.08-10.48L781.52-9.84L781.52-9.84Q781.28-8.56 780.08-6.44L780.08-6.44L780.08-6.44Q778.88-4.32 777.44-2.96L777.44-2.96L777.44-2.96Q776-1.60 773.20-0.44L773.20-0.44L773.20-0.44Q770.40 0.72 766.96 0.72L766.96 0.72L766.96 0.72Q760.48 0.72 757.16-2.36L757.16-2.36L757.16-2.36Q753.84-5.44 753.84-10.80L753.84-10.80L753.84-10.80Q753.84-20.32 758.56-25.72L758.56-25.72L758.56-25.72Q763.28-31.12 771.20-31.12zM779.36-23.04L779.36-23.04Q779.36-25.68 777.80-27.40L777.80-27.40L777.80-27.40Q776.24-29.12 773.16-29.12L773.16-29.12L773.16-29.12Q770.08-29.12 767.16-25.44L767.16-25.44L767.16-25.44Q764.24-21.76 763.28-14.56L763.28-14.56L763.28-14.56Q779.36-14.64 779.36-23.04L779.36-23.04" fill="#a80909" stroke="none" stroke-width="none" transform="translate(-433.44000244140625,19.233846153846166)" style="fill: rgb(214, 46, 46);"></path></g><g class="path" style="transform: scale(0.91); transform-origin: 370.44px 4.03385px; animation: 1s linear -0.0761538s infinite normal forwards running breath-ad21a97a-9700-4070-af94-ceb564b787e8;"><path d="M816.64-0.88L816.64-0.88L816.64-0.88Q818.56-0.88 820.64-3.12L820.64-3.12L821.84-2.16L821.84-2.16Q821.28-1.04 819.36-0.16L819.36-0.16L819.36-0.16Q817.44 0.72 815.12 0.72L815.12 0.72L815.12 0.72Q807.84 0.72 807.84-5.84L807.84-5.84L807.84-5.84Q807.84-8.64 809.28-15.84L809.28-15.84L809.28-15.84Q810.72-23.04 810.72-25.28L810.72-25.28L810.72-25.28Q810.72-28.72 807.44-28.72L807.44-28.72L807.44-28.72Q804.80-28.72 802.36-25.28L802.36-25.28L802.36-25.28Q799.92-21.84 798.32-15.84L798.32-15.84L795.60-0.88L795.60-0.88Q798.08-1.12 799.68-3.12L799.68-3.12L800.88-2.16L800.88-2.16Q798.48 0.72 794.88 0.72L794.88 0.72L794.88 0.72Q791.28 0.72 789.24-1.12L789.24-1.12L789.24-1.12Q787.20-2.96 787.20-5.92L787.20-5.92L787.20-5.92Q787.20-7.04 788.48-14.72L788.48-14.72L791.12-29.52L791.12-29.52Q788.72-29.28 787.12-27.28L787.12-27.28L785.92-28.24L785.92-28.24Q788.32-31.12 791.96-31.12L791.96-31.12L791.96-31.12Q795.60-31.12 797.60-29.28L797.60-29.28L797.60-29.28Q799.60-27.44 799.60-24.08L799.60-24.08L799.60-23.60L799.60-23.60Q802.88-31.12 809.84-31.12L809.84-31.12L809.84-31.12Q814.56-31.12 817.20-28.44L817.20-28.44L817.20-28.44Q819.84-25.76 819.84-21.04L819.84-21.04L819.84-21.04Q819.84-18.56 818.32-11.48L818.32-11.48L818.32-11.48Q816.80-4.40 816.64-0.88" fill="#a80909" stroke="none" stroke-width="none" transform="translate(-433.44000244140625,19.233846153846166)" style="fill: rgb(252, 92, 92);"></path></g><g class="path" style="transform: scale(0.91); transform-origin: 398.12px 14.0738px; animation: 1s linear -0.0507692s infinite normal forwards running breath-ad21a97a-9700-4070-af94-ceb564b787e8;"><path d="M827.44-1.04L827.44-1.04L827.44-1.04Q825.76-2.72 825.76-5.12L825.76-5.12L825.76-5.12Q825.76-7.52 827.44-9.24L827.44-9.24L827.44-9.24Q829.12-10.96 831.52-10.96L831.52-10.96L831.52-10.96Q833.92-10.96 835.64-9.24L835.64-9.24L835.64-9.24Q837.36-7.52 837.36-5.12L837.36-5.12L837.36-5.12Q837.36-2.72 835.64-1.04L835.64-1.04L835.64-1.04Q833.92 0.64 831.52 0.64L831.52 0.64L831.52 0.64Q829.12 0.64 827.44-1.04" fill="#a80909" stroke="none" stroke-width="none" transform="translate(-433.44000244140625,19.233846153846166)" style="fill: rgb(255, 0, 0);"></path></g><g class="path" style="transform: scale(0.91); transform-origin: 417.08px 14.0738px; animation: 1s linear -0.0253846s infinite normal forwards running breath-ad21a97a-9700-4070-af94-ceb564b787e8;"><path d="M846.40-1.04L846.40-1.04L846.40-1.04Q844.72-2.72 844.72-5.12L844.72-5.12L844.72-5.12Q844.72-7.52 846.40-9.24L846.40-9.24L846.40-9.24Q848.08-10.96 850.48-10.96L850.48-10.96L850.48-10.96Q852.88-10.96 854.60-9.24L854.60-9.24L854.60-9.24Q856.32-7.52 856.32-5.12L856.32-5.12L856.32-5.12Q856.32-2.72 854.60-1.04L854.60-1.04L854.60-1.04Q852.88 0.64 850.48 0.64L850.48 0.64L850.48 0.64Q848.08 0.64 846.40-1.04" fill="#a80909" stroke="none" stroke-width="none" transform="translate(-433.44000244140625,19.233846153846166)" style="fill: rgb(168, 9, 9);"></path></g><g class="path" style="transform: scale(0.91); transform-origin: 436.04px 14.0738px; animation: 1s linear 0s infinite normal forwards running breath-ad21a97a-9700-4070-af94-ceb564b787e8;"><path d="M865.36-1.04L865.36-1.04L865.36-1.04Q863.68-2.72 863.68-5.12L863.68-5.12L863.68-5.12Q863.68-7.52 865.36-9.24L865.36-9.24L865.36-9.24Q867.04-10.96 869.44-10.96L869.44-10.96L869.44-10.96Q871.84-10.96 873.56-9.24L873.56-9.24L873.56-9.24Q875.28-7.52 875.28-5.12L875.28-5.12L875.28-5.12Q875.28-2.72 873.56-1.04L873.56-1.04L873.56-1.04Q871.84 0.64 869.44 0.64L869.44 0.64L869.44 0.64Q867.04 0.64 865.36-1.04" fill="#a80909" stroke="none" stroke-width="none" transform="translate(-433.44000244140625,19.233846153846166)" style="fill: rgb(214, 46, 46);"></path></g></g>
</g>
</g>
<style id="breath-ad21a97a-9700-4070-af94-ceb564b787e8" data-anikit="">@keyframes breath-ad21a97a-9700-4070-af94-ceb564b787e8
{
  0% {
    animation-timing-function: cubic-bezier(0.9647,0.2413,-0.0705,0.7911);
    transform: scale(0.9099999999999999);
  }
  51% {
    animation-timing-function: cubic-bezier(0.9226,0.2631,-0.0308,0.7628);
    transform: scale(1.02994);
  }
  100% {
    transform: scale(0.9099999999999999);
  }
}</style></svg>