<?xml version="1.0" encoding="utf-8"?><svg xmlns="http://www.w3.org/2000/svg" width="289" height="26" preserveAspectRatio="xMidYMid" xmlns:xlink="http://www.w3.org/1999/xlink" style="margin-right:-2px;display:block;animation-play-state:paused" ><style type="text/css" style="animation-play-state:paused" >text {
    text-anchor: middle; font-size: 25px; opacity: 0;
  }</style>


<g style="transform-origin:144.5px 13px;transform:matrix(1, 0, 0, 1, 0, 0);animation-play-state:paused" ><g transform="translate(144.5,13)" style="transform:matrix(1, 0, 0, 1, 144.5, 13);animation-play-state:paused" ><g transform="translate(0,0)" style="transform:matrix(1, 0, 0, 1, 0, 0);animation-play-state:paused" ><g class="path" style="transform-origin:-112.76px -0.84254px;animation-timing-function:linear;animation-play-state:paused;animation-name:static-8682f257-8b94-4775-8011-22e0c7f6f2d3;animation-iteration-count:infinite;animation-fill-mode:forwards;animation-duration:1s;animation-delay:-0.637241s" ><path d="M16.05-1.10L16.05-1.10L16.05-1.10Q17.38-1.10 18.26-1.99L18.26-1.99L18.26-1.99Q19.15-2.88 19.58-3.93L19.58-3.93L22.53-16.63L23.05-16.63L19.55-1.60L19.33-0.35L19.33-0.35Q19.33 0.70 20.30 0.70L20.30 0.70L20.30 0.70Q21.08 0.70 21.53-0.03L21.53-0.03L21.88 0.28L21.73 0.50L21.73 0.50Q21.58 0.73 21.19 0.95L21.19 0.95L21.19 0.95Q20.80 1.18 20.16 1.18L20.16 1.18L20.16 1.18Q19.53 1.18 19.16 0.75L19.16 0.75L19.16 0.75Q18.80 0.33 18.80-0.20L18.80-0.20L18.80-0.20Q18.80-0.73 19.10-1.93L19.10-1.93L19.23-2.50L19.23-2.50Q18.55-1.45 17.41-0.61L17.41-0.61L17.41-0.61Q16.28 0.23 14.90 0.23L14.90 0.23L14.90 0.23Q12.60 0.23 11.38-0.99L11.38-0.99L11.38-0.99Q10.15-2.20 10.15-4.06L10.15-4.06L10.15-4.06Q10.15-5.93 10.65-8L10.65-8L10.65-8Q10.85-8.78 11.35-10.69L11.35-10.69L11.35-10.69Q11.85-12.60 12.15-13.83L12.15-13.83L12.15-13.83Q10.18-14.68 7.70-14.68L7.70-14.68L7.70-14.68Q5.55-14.68 4.11-13.20L4.11-13.20L4.11-13.20Q2.68-11.73 2.68-9.35L2.68-9.35L2.13-9.35L2.13-9.35Q2.13-11.95 3.73-13.59L3.73-13.59L3.73-13.59Q5.33-15.23 7.83-15.23L7.83-15.23L7.83-15.23Q9.83-15.23 12.15-14.45L12.15-14.45L12.15-14.45Q14.83-13.48 17.95-13.48L17.95-13.48L17.95-12.95L17.95-12.95Q16.07-12.95 14.95-13.13L14.95-13.13L14.95-13.13Q14.65-11.88 14.08-9.66L14.08-9.66L14.08-9.66Q13.50-7.45 13.28-6.29L13.28-6.29L13.28-6.29Q13.05-5.13 13.05-3.90L13.05-3.90L13.05-3.90Q13.05-2.68 13.89-1.89L13.89-1.89L13.89-1.89Q14.73-1.10 16.05-1.10" fill="#a2d895" stroke="none" stroke-width="none" transform="translate(-125.35003662109375,6.882459043305504)" style="transform:matrix(1, 0, 0, 1, -125.35, 6.88246);fill:rgb(162, 216, 149);animation-play-state:paused" ></path></g>
<g class="path" style="transform-origin:-106.735px -10.7825px;animation-timing-function:linear;animation-play-state:paused;animation-name:static-8682f257-8b94-4775-8011-22e0c7f6f2d3;animation-iteration-count:infinite;animation-fill-mode:forwards;animation-duration:1s;animation-delay:-0.614483s" ><path d="M18.59-16.20L18.59-16.20L18.59-16.20Q17.98-16.20 17.56-16.61L17.56-16.61L17.56-16.61Q17.15-17.03 17.15-17.64L17.15-17.64L17.15-17.64Q17.15-18.25 17.57-18.69L17.57-18.69L17.57-18.69Q18-19.13 18.60-19.13L18.60-19.13L18.60-19.13Q19.20-19.13 19.64-18.69L19.64-18.69L19.64-18.69Q20.08-18.25 20.08-17.65L20.08-17.65L20.08-17.65Q20.08-17.05 19.64-16.63L19.64-16.63L19.64-16.63Q19.20-16.20 18.59-16.20" fill="#a2d895" stroke="none" stroke-width="none" transform="translate(-125.35003662109375,6.882459043305504)" style="transform:matrix(1, 0, 0, 1, -125.35, 6.88246);fill:rgb(117, 179, 76);animation-play-state:paused" ></path></g>
<g class="path" style="transform-origin:-110.74px -10.7825px;animation-timing-function:linear;animation-play-state:paused;animation-name:static-8682f257-8b94-4775-8011-22e0c7f6f2d3;animation-iteration-count:infinite;animation-fill-mode:forwards;animation-duration:1s;animation-delay:-0.591724s" ><path d="M14.59-16.20L14.59-16.20L14.59-16.20Q13.98-16.20 13.56-16.61L13.56-16.61L13.56-16.61Q13.15-17.03 13.15-17.64L13.15-17.64L13.15-17.64Q13.15-18.25 13.58-18.69L13.58-18.69L13.58-18.69Q14-19.13 14.60-19.13L14.60-19.13L14.60-19.13Q15.20-19.13 15.64-18.69L15.64-18.69L15.64-18.69Q16.07-18.25 16.07-17.65L16.07-17.65L16.07-17.65Q16.07-17.05 15.64-16.63L15.64-16.63L15.64-16.63Q15.20-16.20 14.59-16.20" fill="#a2d895" stroke="none" stroke-width="none" transform="translate(-125.35003662109375,6.882459043305504)" style="transform:matrix(1, 0, 0, 1, -125.35, 6.88246);fill:rgb(195, 213, 130);animation-play-state:paused" ></path></g>
<g class="path" style="transform-origin:-96.435px -0.877541px;animation-timing-function:linear;animation-play-state:paused;animation-name:static-8682f257-8b94-4775-8011-22e0c7f6f2d3;animation-iteration-count:infinite;animation-fill-mode:forwards;animation-duration:1s;animation-delay:-0.568966s" ><path d="M28.48 0.23L28.48 0.23L28.48 0.23Q26.90 0.23 26.18-0.83L26.18-0.83L24.08 0.68L23.60 0.68L26.40-15.70L26.40-15.70Q25.65-15.63 25.15-15L25.15-15L24.78-15.30L24.78-15.30Q25.53-16.20 26.66-16.20L26.66-16.20L26.66-16.20Q27.80-16.20 28.43-15.63L28.43-15.63L28.43-15.63Q29.05-15.05 29.05-14L29.05-14L29.05-14Q29.05-13.80 29.00-13.35L29.00-13.35L29.00-13.35Q28.60-11.13 28.03-8L28.03-8L28.03-8Q29.08-9.70 30.75-9.70L30.75-9.70L30.75-9.70Q32.43-9.70 33.33-8.74L33.33-8.74L33.33-8.74Q34.23-7.78 34.23-6.10L34.23-6.10L34.23-6.10Q34.23-3.15 32.63-1.46L32.63-1.46L32.63-1.46Q31.03 0.23 28.48 0.23zM28.30-0.45L28.30-0.45L28.30-0.45Q29.68-0.45 30.54-2.36L30.54-2.36L30.54-2.36Q31.40-4.28 31.40-7.13L31.40-7.13L31.40-7.13Q31.40-8.28 31.16-8.70L31.16-8.70L31.16-8.70Q30.93-9.13 30.30-9.13L30.30-9.13L30.30-9.13Q29.68-9.13 29.01-8.38L29.01-8.38L29.01-8.38Q28.35-7.63 28.05-6.96L28.05-6.96L28.05-6.96Q27.75-6.30 27.75-6.20L27.75-6.20L27.70-6.20L27.70-6.20Q27.08-2.93 26.78-1.25L26.78-1.25L26.78-1.25Q27.20-0.45 28.30-0.45" fill="#a2d895" stroke="none" stroke-width="none" transform="translate(-125.35003662109375,6.882459043305504)" style="transform:matrix(1, 0, 0, 1, -125.35, 6.88246);fill:rgb(162, 216, 149);animation-play-state:paused" ></path></g>
<g class="path" style="transform-origin:-85.595px 2.13246px;animation-timing-function:linear;animation-play-state:paused;animation-name:static-8682f257-8b94-4775-8011-22e0c7f6f2d3;animation-iteration-count:infinite;animation-fill-mode:forwards;animation-duration:1s;animation-delay:-0.546207s" ><path d="M40.85-9.73L40.85-9.73L40.85-9.73Q44.03-9.73 44.03-7.20L44.03-7.20L44.03-7.20Q44.03-5.63 42.54-4.81L42.54-4.81L42.54-4.81Q41.05-4 38.30-3.98L38.30-3.98L38.30-3.98Q38.25-3.08 38.25-2.55L38.25-2.55L38.25-2.55Q38.25-1.43 38.76-0.89L38.76-0.89L38.76-0.89Q39.28-0.35 40.05-0.35L40.05-0.35L40.05-0.35Q40.83-0.35 41.46-0.65L41.46-0.65L41.46-0.65Q42.10-0.95 42.48-1.36L42.48-1.36L42.48-1.36Q42.85-1.78 43.13-2.23L43.13-2.23L43.13-2.23Q43.63-3.05 43.63-3.28L43.63-3.28L44.08-3.08L44.08-3.08Q44-2.68 43.63-2.01L43.63-2.01L43.63-2.01Q43.25-1.35 42.80-0.93L42.80-0.93L42.80-0.93Q42.35-0.50 41.48-0.14L41.48-0.14L41.48-0.14Q40.60 0.23 39.53 0.23L39.53 0.23L39.53 0.23Q37.50 0.23 36.46-0.74L36.46-0.74L36.46-0.74Q35.43-1.70 35.43-3.38L35.43-3.38L35.43-3.38Q35.43-6.35 36.90-8.04L36.90-8.04L36.90-8.04Q38.38-9.73 40.85-9.73zM43.40-7.20L43.40-7.20Q43.40-8.03 42.91-8.56L42.91-8.56L42.91-8.56Q42.43-9.10 41.46-9.10L41.46-9.10L41.46-9.10Q40.50-9.10 39.59-7.95L39.59-7.95L39.59-7.95Q38.68-6.80 38.38-4.55L38.38-4.55L38.38-4.55Q43.40-4.58 43.40-7.20L43.40-7.20" fill="#a2d895" stroke="none" stroke-width="none" transform="translate(-125.35003662109375,6.882459043305504)" style="transform:matrix(1, 0, 0, 1, -125.35, 6.88246);fill:rgb(117, 179, 76);animation-play-state:paused" ></path></g>
<g class="path" style="transform-origin:-75.275px 2.01746px;animation-timing-function:linear;animation-play-state:paused;animation-name:static-8682f257-8b94-4775-8011-22e0c7f6f2d3;animation-iteration-count:infinite;animation-fill-mode:forwards;animation-duration:1s;animation-delay:-0.523448s" ><path d="M45.90-8.53L45.53-8.83L45.53-8.83Q46.28-9.73 47.41-9.73L47.41-9.73L47.41-9.73Q48.55-9.73 49.18-9.15L49.18-9.15L49.18-9.15Q49.80-8.58 49.80-7.53L49.80-7.53L49.80-7.38L49.80-7.38Q50.93-9.73 52.73-9.73L52.73-9.73L52.73-9.73Q54.65-9.73 54.65-7.73L54.65-7.73L54.65-7.73Q54.65-6.90 54.10-5.98L54.10-5.98L54.10-5.98Q53.55-5.05 53.00-4.21L53.00-4.21L53.00-4.21Q52.45-3.38 52.45-2.73L52.45-2.73L51.85-2.73L51.85-2.73Q51.85-3.65 52.93-5.23L52.93-5.23L52.93-5.23Q54.00-6.80 54.00-7.66L54.00-7.66L54.00-7.66Q54.00-8.53 53.66-8.84L53.66-8.84L53.66-8.84Q53.33-9.15 52.66-9.15L52.66-9.15L52.66-9.15Q52.00-9.15 51.36-8.58L51.36-8.58L51.36-8.58Q50.73-8 50.30-7.13L50.30-7.13L50.30-7.13Q49.63-5.83 49.40-5L49.40-5L49.40-4.98L48.50 0L45.50 0L47.15-9.22L47.15-9.22Q46.40-9.15 45.90-8.53L45.90-8.53" fill="#a2d895" stroke="none" stroke-width="none" transform="translate(-125.35003662109375,6.882459043305504)" style="transform:matrix(1, 0, 0, 1, -125.35, 6.88246);fill:rgb(195, 213, 130);animation-play-state:paused" ></path></g>
<g class="path" style="transform-origin:-66.25px 0.282459px;animation-timing-function:linear;animation-play-state:paused;animation-name:static-8682f257-8b94-4775-8011-22e0c7f6f2d3;animation-iteration-count:infinite;animation-fill-mode:forwards;animation-duration:1s;animation-delay:-0.50069s" ><path d="M55.45-9.50L56.73-9.50L57.40-13.20L57.40-13.20Q59.25-13.20 60.15-13.35L60.15-13.35L60.48-13.43L60.48-13.43Q60.13-11.68 59.70-9.50L59.70-9.50L62.80-9.50L62.75-9.05L59.63-9.05L59.63-9.05Q58.38-2.60 58.38-1.28L58.38-1.28L58.38-1.28Q58.38-0.48 59.23-0.48L59.23-0.48L59.23-0.48Q60.08-0.48 60.78-1.55L60.78-1.55L60.78-1.55Q61.48-2.63 61.78-3.88L61.78-3.88L62.23-3.73L62.23-3.73Q61.30 0.23 58.40 0.23L58.40 0.23L58.40 0.23Q57.20 0.23 56.40-0.44L56.40-0.44L56.40-0.44Q55.60-1.10 55.60-2.29L55.60-2.29L55.60-2.29Q55.60-3.48 56.63-9.05L56.63-9.05L55.40-9.05L55.45-9.50" fill="#a2d895" stroke="none" stroke-width="none" transform="translate(-125.35003662109375,6.882459043305504)" style="transform:matrix(1, 0, 0, 1, -125.35, 6.88246);fill:rgb(162, 216, 149);animation-play-state:paused" ></path></g>
<g class="path" style="transform-origin:-57.425px 2.01746px;animation-timing-function:linear;animation-play-state:paused;animation-name:static-8682f257-8b94-4775-8011-22e0c7f6f2d3;animation-iteration-count:infinite;animation-fill-mode:forwards;animation-duration:1s;animation-delay:-0.477931s" ><path d="M63.75-8.53L63.38-8.83L63.38-8.83Q64.13-9.73 65.26-9.73L65.26-9.73L65.26-9.73Q66.40-9.73 67.03-9.15L67.03-9.15L67.03-9.15Q67.65-8.58 67.65-7.53L67.65-7.53L67.65-7.38L67.65-7.38Q68.78-9.73 70.58-9.73L70.58-9.73L70.58-9.73Q72.50-9.73 72.50-7.73L72.50-7.73L72.50-7.73Q72.50-6.90 71.95-5.98L71.95-5.98L71.95-5.98Q71.40-5.05 70.85-4.21L70.85-4.21L70.85-4.21Q70.30-3.38 70.30-2.73L70.30-2.73L69.70-2.73L69.70-2.73Q69.70-3.65 70.78-5.23L70.78-5.23L70.78-5.23Q71.85-6.80 71.85-7.66L71.85-7.66L71.85-7.66Q71.85-8.53 71.51-8.84L71.51-8.84L71.51-8.84Q71.17-9.15 70.51-9.15L70.51-9.15L70.51-9.15Q69.85-9.15 69.21-8.58L69.21-8.58L69.21-8.58Q68.58-8 68.15-7.13L68.15-7.13L68.15-7.13Q67.47-5.83 67.25-5L67.25-5L67.25-4.98L66.35 0L63.35 0L65-9.22L65-9.22Q64.25-9.15 63.75-8.53L63.75-8.53" fill="#a2d895" stroke="none" stroke-width="none" transform="translate(-125.35003662109375,6.882459043305504)" style="transform:matrix(1, 0, 0, 1, -125.35, 6.88246);fill:rgb(117, 179, 76);animation-play-state:paused" ></path></g>
<g class="path" style="transform-origin:-46.925px 2.13246px;animation-timing-function:linear;animation-play-state:paused;animation-name:static-8682f257-8b94-4775-8011-22e0c7f6f2d3;animation-iteration-count:infinite;animation-fill-mode:forwards;animation-duration:1s;animation-delay:-0.455172s" ><path d="M81.85 0.23L81.85 0.23L81.85 0.23Q79.65 0.23 79.45-1.70L79.45-1.70L79.45-1.70Q78.35 0.23 76.67 0.23L76.67 0.23L76.67 0.23Q75 0.23 74.01-0.79L74.01-0.79L74.01-0.79Q73.02-1.80 73.02-3.63L73.02-3.63L73.02-3.63Q73.02-6.48 74.42-8.10L74.42-8.10L74.42-8.10Q75.83-9.73 78.05-9.73L78.05-9.73L78.05-9.73Q79.88-9.73 80.47-8L80.47-8L80.47-8Q80.60-8.75 80.75-9.50L80.75-9.50L80.75-9.50Q82.60-9.50 83.50-9.65L83.50-9.65L83.83-9.73L82.10-0.28L82.10-0.28Q82.85-0.35 83.35-0.98L83.35-0.98L83.72-0.68L83.72-0.68Q82.97 0.23 81.85 0.23zM75.85-2.35L75.85-2.35Q75.85-1.23 76.14-0.79L76.14-0.79L76.14-0.79Q76.42-0.35 77.02-0.35L77.02-0.35L77.02-0.35Q77.63-0.35 78.25-1L78.25-1L78.25-1Q79.08-1.85 79.58-3.15L79.58-3.15L79.58-3.15Q79.65-3.48 79.86-4.71L79.86-4.71L79.86-4.71Q80.08-5.95 80.22-6.75L80.22-6.75L80.22-6.75Q80.15-7.70 79.70-8.40L79.70-8.40L79.70-8.40Q79.25-9.10 78.58-9.10L78.58-9.10L78.58-9.10Q77.35-9.10 76.60-6.91L76.60-6.91L76.60-6.91Q75.85-4.73 75.85-2.35L75.85-2.35" fill="#a2d895" stroke="none" stroke-width="none" transform="translate(-125.35003662109375,6.882459043305504)" style="transform:matrix(1, 0, 0, 1, -125.35, 6.88246);fill:rgb(195, 213, 130);animation-play-state:paused" ></path></g>
<g class="path" style="transform-origin:-35.17px 4.31746px;animation-timing-function:linear;animation-play-state:paused;animation-name:static-8682f257-8b94-4775-8011-22e0c7f6f2d3;animation-iteration-count:infinite;animation-fill-mode:forwards;animation-duration:1s;animation-delay:-0.432414s" ><path d="M93.35 2.73L93.35 2.73L93.35 2.73Q94.25 2.73 94.90 2.02L94.90 2.02L95.25 2.33L95.25 2.33Q94.65 3.18 93.35 3.18L93.35 3.18L93.35 3.18Q92.80 3.18 92.23 3.05L92.23 3.05L92.23 3.05Q90.53 4.60 87.88 4.60L87.88 4.60L87.88 4.60Q86.30 4.60 85.44 4.06L85.44 4.06L85.44 4.06Q84.58 3.53 84.58 2.66L84.58 2.66L84.58 2.66Q84.58 1.80 85.11 1.29L85.11 1.29L85.11 1.29Q85.65 0.78 87.03 0.78L87.03 0.78L87.03 0.78Q88.40 0.78 90.65 1.90L90.65 1.90L91.43-2.25L91.43-2.25Q90.30-0.18 88.53-0.18L88.53-0.18L88.53-0.18Q85.13-0.18 85.13-3.53L85.13-3.53L85.13-3.53Q85.13-6.33 86.54-8.03L86.54-8.03L86.54-8.03Q87.95-9.73 90.15-9.73L90.15-9.73L90.15-9.73Q91.43-9.73 92.13-8.95L92.13-8.95L92.13-8.95Q92.33-8.72 92.53-8.28L92.53-8.28L92.75-9.50L92.75-9.50Q94.60-9.50 95.45-9.65L95.45-9.65L95.78-9.73L94.13-0.50L94.13-0.50Q93.75 1.45 92.63 2.65L92.63 2.65L92.63 2.65Q92.95 2.73 93.35 2.73zM87.95-2.75L87.95-2.75Q87.95-1.60 88.18-1.21L88.18-1.21L88.18-1.21Q88.40-0.83 89.03-0.83L89.03-0.83L89.03-0.83Q89.65-0.83 90.30-1.50L90.30-1.50L90.30-1.50Q90.95-2.18 91.24-2.76L91.24-2.76L91.24-2.76Q91.53-3.35 91.73-3.90L91.73-3.90L92.25-6.78L92.25-6.95L92.25-6.95Q92.25-9.25 90.15-9.25L90.15-9.25L90.15-9.25Q89.35-9.25 88.65-7.08L88.65-7.08L88.65-7.08Q87.95-4.90 87.95-2.75L87.95-2.75zM87.78 4.10L87.78 4.10L87.78 4.10Q89.78 4.10 90.48 2.38L90.48 2.38L90.13 2.20L90.13 2.20Q89.83 2.05 89.76 2.01L89.76 2.01L89.76 2.01Q89.70 1.98 89.43 1.85L89.43 1.85L89.43 1.85Q89.15 1.73 89.03 1.69L89.03 1.69L89.03 1.69Q88.90 1.65 88.64 1.55L88.64 1.55L88.64 1.55Q88.38 1.45 88.20 1.41L88.20 1.41L88.20 1.41Q88.03 1.38 87.80 1.33L87.80 1.33L87.80 1.33Q87.43 1.25 86.70 1.25L86.70 1.25L86.70 1.25Q85.98 1.25 85.54 1.60L85.54 1.60L85.54 1.60Q85.10 1.95 85.10 2.63L85.10 2.63L85.10 2.63Q85.10 3.30 85.83 3.70L85.83 3.70L85.83 3.70Q86.55 4.10 87.78 4.10" fill="#a2d895" stroke="none" stroke-width="none" transform="translate(-125.35003662109375,6.882459043305504)" style="transform:matrix(1, 0, 0, 1, -125.35, 6.88246);fill:rgb(162, 216, 149);animation-play-state:paused" ></path></g>
<g class="path" style="transform-origin:-23.085px 2.13246px;animation-timing-function:linear;animation-play-state:paused;animation-name:static-8682f257-8b94-4775-8011-22e0c7f6f2d3;animation-iteration-count:infinite;animation-fill-mode:forwards;animation-duration:1s;animation-delay:-0.409655s" ><path d="M98.30-9.22L98.30-9.22L98.30-9.22Q97.70-9.22 97.05-8.53L97.05-8.53L96.68-8.83L96.68-8.83Q96.85-9.18 97.45-9.45L97.45-9.45L97.45-9.45Q98.05-9.73 98.78-9.73L98.78-9.73L98.78-9.73Q101.05-9.73 101.05-7.68L101.05-7.68L101.05-7.68Q101.05-6.80 100.60-4.55L100.60-4.55L100.60-4.55Q100.15-2.30 100.15-1.60L100.15-1.60L100.15-1.60Q100.15-0.53 101.18-0.53L101.18-0.53L101.18-0.53Q101.90-0.53 102.59-1.38L102.59-1.38L102.59-1.38Q103.28-2.23 103.78-3.73L103.78-3.73L104.83-9.50L104.83-9.50Q106.68-9.50 107.53-9.65L107.53-9.65L107.85-9.73L106.18-0.28L106.18-0.28Q106.93-0.35 107.43-0.98L107.43-0.98L107.80-0.68L107.80-0.68Q107.05 0.23 105.93 0.23L105.93 0.23L105.93 0.23Q104.80 0.23 104.18-0.33L104.18-0.33L104.18-0.33Q103.55-0.88 103.53-1.88L103.53-1.88L103.53-1.88Q102.48 0.23 100.43 0.23L100.43 0.23L100.43 0.23Q98.95 0.23 98.13-0.61L98.13-0.61L98.13-0.61Q97.30-1.45 97.30-2.93L97.30-2.93L97.30-2.93Q97.30-3.70 97.78-5.91L97.78-5.91L97.78-5.91Q98.25-8.13 98.30-9.22" fill="#a2d895" stroke="none" stroke-width="none" transform="translate(-125.35003662109375,6.882459043305504)" style="transform:matrix(1, 0, 0, 1, -125.35, 6.88246);fill:rgb(117, 179, 76);animation-play-state:paused" ></path></g>
<g class="path" style="transform-origin:-10.435px 2.13246px;animation-timing-function:linear;animation-play-state:paused;animation-name:static-8682f257-8b94-4775-8011-22e0c7f6f2d3;animation-iteration-count:infinite;animation-fill-mode:forwards;animation-duration:1s;animation-delay:-0.386897s" ><path d="M118.90-0.28L118.90-0.28L118.90-0.28Q119.50-0.28 120.15-0.98L120.15-0.98L120.53-0.68L120.53-0.68Q120.35-0.33 119.75-0.05L119.75-0.05L119.75-0.05Q119.15 0.23 118.42 0.23L118.42 0.23L118.42 0.23Q116.15 0.23 116.15-1.83L116.15-1.83L116.15-1.83Q116.15-2.70 116.60-4.95L116.60-4.95L116.60-4.95Q117.05-7.20 117.05-7.90L117.05-7.90L117.05-7.90Q117.05-8.97 116.03-8.97L116.03-8.97L116.03-8.97Q115.20-8.97 114.44-7.90L114.44-7.90L114.44-7.90Q113.67-6.83 113.17-4.95L113.17-4.95L112.33-0.28L112.33-0.28Q113.10-0.35 113.60-0.98L113.60-0.98L113.97-0.68L113.97-0.68Q113.22 0.23 112.10 0.23L112.10 0.23L112.10 0.23Q110.97 0.23 110.34-0.35L110.34-0.35L110.34-0.35Q109.70-0.93 109.70-1.85L109.70-1.85L109.70-1.85Q109.70-2.20 110.10-4.60L110.10-4.60L110.92-9.22L110.92-9.22Q110.17-9.15 109.67-8.53L109.67-8.53L109.30-8.83L109.30-8.83Q110.05-9.73 111.19-9.73L111.19-9.73L111.19-9.73Q112.33-9.73 112.95-9.15L112.95-9.15L112.95-9.15Q113.58-8.58 113.58-7.53L113.58-7.53L113.58-7.38L113.58-7.38Q114.60-9.73 116.78-9.73L116.78-9.73L116.78-9.73Q118.25-9.73 119.08-8.89L119.08-8.89L119.08-8.89Q119.90-8.05 119.90-6.58L119.90-6.58L119.90-6.58Q119.90-5.80 119.42-3.59L119.42-3.59L119.42-3.59Q118.95-1.38 118.90-0.28" fill="#a2d895" stroke="none" stroke-width="none" transform="translate(-125.35003662109375,6.882459043305504)" style="transform:matrix(1, 0, 0, 1, -125.35, 6.88246);fill:rgb(195, 213, 130);animation-play-state:paused" ></path></g>
<g class="path" style="transform-origin:1.39997px 4.31746px;animation-timing-function:linear;animation-play-state:paused;animation-name:static-8682f257-8b94-4775-8011-22e0c7f6f2d3;animation-iteration-count:infinite;animation-fill-mode:forwards;animation-duration:1s;animation-delay:-0.364138s" ><path d="M129.92 2.73L129.92 2.73L129.92 2.73Q130.82 2.73 131.47 2.02L131.47 2.02L131.82 2.33L131.82 2.33Q131.22 3.18 129.92 3.18L129.92 3.18L129.92 3.18Q129.38 3.18 128.80 3.05L128.80 3.05L128.80 3.05Q127.10 4.60 124.45 4.60L124.45 4.60L124.45 4.60Q122.88 4.60 122.01 4.06L122.01 4.06L122.01 4.06Q121.15 3.53 121.15 2.66L121.15 2.66L121.15 2.66Q121.15 1.80 121.69 1.29L121.69 1.29L121.69 1.29Q122.22 0.78 123.60 0.78L123.60 0.78L123.60 0.78Q124.97 0.78 127.22 1.90L127.22 1.90L128-2.25L128-2.25Q126.88-0.18 125.10-0.18L125.10-0.18L125.10-0.18Q121.70-0.18 121.70-3.53L121.70-3.53L121.70-3.53Q121.70-6.33 123.11-8.03L123.11-8.03L123.11-8.03Q124.52-9.73 126.72-9.73L126.72-9.73L126.72-9.73Q128-9.73 128.70-8.95L128.70-8.95L128.70-8.95Q128.90-8.72 129.10-8.28L129.10-8.28L129.32-9.50L129.32-9.50Q131.17-9.50 132.03-9.65L132.03-9.65L132.35-9.73L130.70-0.50L130.70-0.50Q130.32 1.45 129.20 2.65L129.20 2.65L129.20 2.65Q129.53 2.73 129.92 2.73zM124.52-2.75L124.52-2.75Q124.52-1.60 124.75-1.21L124.75-1.21L124.75-1.21Q124.97-0.83 125.60-0.83L125.60-0.83L125.60-0.83Q126.22-0.83 126.88-1.50L126.88-1.50L126.88-1.50Q127.52-2.18 127.81-2.76L127.81-2.76L127.81-2.76Q128.10-3.35 128.30-3.90L128.30-3.90L128.82-6.78L128.82-6.95L128.82-6.95Q128.82-9.25 126.72-9.25L126.72-9.25L126.72-9.25Q125.92-9.25 125.22-7.08L125.22-7.08L125.22-7.08Q124.52-4.90 124.52-2.75L124.52-2.75zM124.35 4.10L124.35 4.10L124.35 4.10Q126.35 4.10 127.05 2.38L127.05 2.38L126.70 2.20L126.70 2.20Q126.40 2.05 126.34 2.01L126.34 2.01L126.34 2.01Q126.27 1.98 126 1.85L126 1.85L126 1.85Q125.72 1.73 125.60 1.69L125.60 1.69L125.60 1.69Q125.47 1.65 125.21 1.55L125.21 1.55L125.21 1.55Q124.95 1.45 124.77 1.41L124.77 1.41L124.77 1.41Q124.60 1.38 124.38 1.33L124.38 1.33L124.38 1.33Q124 1.25 123.27 1.25L123.27 1.25L123.27 1.25Q122.55 1.25 122.11 1.60L122.11 1.60L122.11 1.60Q121.67 1.95 121.67 2.63L121.67 2.63L121.67 2.63Q121.67 3.30 122.40 3.70L122.40 3.70L122.40 3.70Q123.13 4.10 124.35 4.10" fill="#a2d895" stroke="none" stroke-width="none" transform="translate(-125.35003662109375,6.882459043305504)" style="transform:matrix(1, 0, 0, 1, -125.35, 6.88246);fill:rgb(162, 216, 149);animation-play-state:paused" ></path></g>
<g class="path" style="transform-origin:17.595px 2.13246px;animation-timing-function:linear;animation-play-state:paused;animation-name:static-8682f257-8b94-4775-8011-22e0c7f6f2d3;animation-iteration-count:infinite;animation-fill-mode:forwards;animation-duration:1s;animation-delay:-0.341379s" ><path d="M144.05-9.73L144.05-9.73L144.05-9.73Q147.22-9.73 147.22-7.20L147.22-7.20L147.22-7.20Q147.22-5.63 145.74-4.81L145.74-4.81L145.74-4.81Q144.25-4 141.50-3.98L141.50-3.98L141.50-3.98Q141.45-3.08 141.45-2.55L141.45-2.55L141.45-2.55Q141.45-1.43 141.96-0.89L141.96-0.89L141.96-0.89Q142.47-0.35 143.25-0.35L143.25-0.35L143.25-0.35Q144.02-0.35 144.66-0.65L144.66-0.65L144.66-0.65Q145.30-0.95 145.67-1.36L145.67-1.36L145.67-1.36Q146.05-1.78 146.32-2.23L146.32-2.23L146.32-2.23Q146.82-3.05 146.82-3.28L146.82-3.28L147.27-3.08L147.27-3.08Q147.20-2.68 146.82-2.01L146.82-2.01L146.82-2.01Q146.45-1.35 146.00-0.93L146.00-0.93L146.00-0.93Q145.55-0.50 144.67-0.14L144.67-0.14L144.67-0.14Q143.80 0.23 142.72 0.23L142.72 0.23L142.72 0.23Q140.70 0.23 139.66-0.74L139.66-0.74L139.66-0.74Q138.62-1.70 138.62-3.38L138.62-3.38L138.62-3.38Q138.62-6.35 140.10-8.04L140.10-8.04L140.10-8.04Q141.57-9.73 144.05-9.73zM146.60-7.20L146.60-7.20Q146.60-8.03 146.11-8.56L146.11-8.56L146.11-8.56Q145.62-9.10 144.66-9.10L144.66-9.10L144.66-9.10Q143.70-9.10 142.79-7.95L142.79-7.95L142.79-7.95Q141.87-6.80 141.57-4.55L141.57-4.55L141.57-4.55Q146.60-4.58 146.60-7.20L146.60-7.20" fill="#a2d895" stroke="none" stroke-width="none" transform="translate(-125.35003662109375,6.882459043305504)" style="transform:matrix(1, 0, 0, 1, -125.35, 6.88246);fill:rgb(117, 179, 76);animation-play-state:paused" ></path></g>
<g class="path" style="transform-origin:27.925px 2.01746px;animation-timing-function:linear;animation-play-state:paused;animation-name:static-8682f257-8b94-4775-8011-22e0c7f6f2d3;animation-iteration-count:infinite;animation-fill-mode:forwards;animation-duration:1s;animation-delay:-0.318621s" ><path d="M149.10-8.53L148.72-8.83L148.72-8.83Q149.47-9.73 150.61-9.73L150.61-9.73L150.61-9.73Q151.75-9.73 152.38-9.15L152.38-9.15L152.38-9.15Q153-8.58 153-7.53L153-7.53L153-7.38L153-7.38Q154.13-9.73 155.92-9.73L155.92-9.73L155.92-9.73Q157.85-9.73 157.85-7.73L157.85-7.73L157.85-7.73Q157.85-6.90 157.30-5.98L157.30-5.98L157.30-5.98Q156.75-5.05 156.20-4.21L156.20-4.21L156.20-4.21Q155.65-3.38 155.65-2.73L155.65-2.73L155.05-2.73L155.05-2.73Q155.05-3.65 156.13-5.23L156.13-5.23L156.13-5.23Q157.20-6.80 157.20-7.66L157.20-7.66L157.20-7.66Q157.20-8.53 156.86-8.84L156.86-8.84L156.86-8.84Q156.53-9.15 155.86-9.15L155.86-9.15L155.86-9.15Q155.20-9.15 154.56-8.58L154.56-8.58L154.56-8.58Q153.92-8 153.50-7.13L153.50-7.13L153.50-7.13Q152.82-5.83 152.60-5L152.60-5L152.60-4.98L151.70 0L148.70 0L150.35-9.22L150.35-9.22Q149.60-9.15 149.10-8.53L149.10-8.53" fill="#a2d895" stroke="none" stroke-width="none" transform="translate(-125.35003662109375,6.882459043305504)" style="transform:matrix(1, 0, 0, 1, -125.35, 6.88246);fill:rgb(195, 213, 130);animation-play-state:paused" ></path></g>
<g class="path" style="transform-origin:36.905px -0.342541px;animation-timing-function:linear;animation-play-state:paused;animation-name:static-8682f257-8b94-4775-8011-22e0c7f6f2d3;animation-iteration-count:infinite;animation-fill-mode:forwards;animation-duration:1s;animation-delay:-0.295862s" ><path d="M164.25-16.20L164.25-16.20L164.25-16.20Q165.15-16.20 165.74-15.53L165.74-15.53L165.74-15.53Q166.33-14.85 166.33-13.50L166.33-13.50L166.33-13.50Q166.33-12.15 165.25-9.50L165.25-9.50L166.20-9.50L166.15-9.05L165.05-9.05L165.05-9.05Q164.20-6.93 164.20-5.83L164.20-5.83L163.75-5.83L163.75-5.83Q163.75-7.13 164.58-9.05L164.58-9.05L163.13-9.05L163.13-9.05Q162.38-5.13 161.20 1.75L161.20 1.75L158.18 1.75L160.10-9.05L158.58-9.05L158.63-9.50L160.18-9.50L160.58-11.65L160.58-11.65Q160.97-14.13 161.81-15.16L161.81-15.16L161.81-15.16Q162.65-16.20 164.25-16.20zM165.85-13.55L165.85-13.55L165.85-13.55Q165.85-14.45 165.44-15.10L165.44-15.10L165.44-15.10Q165.03-15.75 164.43-15.75L164.43-15.75L164.43-15.75Q164.18-14.78 163.20-9.50L163.20-9.50L164.75-9.50L164.75-9.50Q165.85-12 165.85-13.55" fill="#a2d895" stroke="none" stroke-width="none" transform="translate(-125.35003662109375,6.882459043305504)" style="transform:matrix(1, 0, 0, 1, -125.35, 6.88246);fill:rgb(162, 216, 149);animation-play-state:paused" ></path></g>
<g class="path" style="transform-origin:45.4px 2.13246px;animation-timing-function:linear;animation-play-state:paused;animation-name:static-8682f257-8b94-4775-8011-22e0c7f6f2d3;animation-iteration-count:infinite;animation-fill-mode:forwards;animation-duration:1s;animation-delay:-0.273103s" ><path d="M169.78 0.23L169.78 0.23Q167.85 0.23 166.85-0.74L166.85-0.74L166.85-0.74Q165.85-1.70 165.85-3.16L165.85-3.16L165.85-3.16Q165.85-4.63 166.11-5.66L166.11-5.66L166.11-5.66Q166.38-6.70 166.97-7.66L166.97-7.66L166.97-7.66Q167.57-8.63 168.79-9.18L168.79-9.18L168.79-9.18Q170-9.73 171.81-9.73L171.81-9.73L171.81-9.73Q173.63-9.73 174.64-8.76L174.64-8.76L174.64-8.76Q175.65-7.80 175.65-6.13L175.65-6.13L175.65-6.13Q175.65-3.28 174.14-1.53L174.14-1.53L174.14-1.53Q172.63 0.23 169.78 0.23L169.78 0.23zM168.68-2.35L168.68-2.35L168.68-2.35Q168.68-0.35 169.84-0.35L169.84-0.35L169.84-0.35Q171-0.35 171.91-2.36L171.91-2.36L171.91-2.36Q172.82-4.38 172.82-7.15L172.82-7.15L172.82-7.15Q172.82-9.25 171.69-9.25L171.69-9.25L171.69-9.25Q170.55-9.25 169.61-7.34L169.61-7.34L169.61-7.34Q168.68-5.43 168.68-2.35" fill="#a2d895" stroke="none" stroke-width="none" transform="translate(-125.35003662109375,6.882459043305504)" style="transform:matrix(1, 0, 0, 1, -125.35, 6.88246);fill:rgb(117, 179, 76);animation-play-state:paused" ></path></g>
<g class="path" style="transform-origin:55.14px -1.10254px;animation-timing-function:linear;animation-play-state:paused;animation-name:static-8682f257-8b94-4775-8011-22e0c7f6f2d3;animation-iteration-count:infinite;animation-fill-mode:forwards;animation-duration:1s;animation-delay:-0.250345s" ><path d="M181.45-0.90L181.45-0.90L181.45-0.90Q181.13-0.48 180.56-0.13L180.56-0.13L180.56-0.13Q180 0.23 179.10 0.23L179.10 0.23L179.10 0.23Q178.20 0.23 177.58-0.35L177.58-0.35L177.58-0.35Q176.95-0.93 176.95-1.98L176.95-1.98L176.95-1.98Q176.95-2.18 177-2.63L177-2.63L178.63-11.63L178.63-11.63Q179.08-14.10 179.86-15.15L179.86-15.15L179.86-15.15Q180.65-16.20 181.95-16.20L181.95-16.20L181.95-16.20Q182.85-16.20 183.44-15.53L183.44-15.53L183.44-15.53Q184.03-14.85 184.03-13.48L184.03-13.48L184.03-13.48Q184.03-12.10 182.96-9.55L182.96-9.55L182.96-9.55Q181.90-7 181.90-5.83L181.90-5.83L181.45-5.83L181.45-5.83Q181.45-7.15 182.50-9.61L182.50-9.61L182.50-9.61Q183.55-12.08 183.55-13.55L183.55-13.55L183.55-13.55Q183.55-14.45 183.14-15.10L183.14-15.10L183.14-15.10Q182.72-15.75 182.13-15.75L182.13-15.75L182.13-15.75Q182.10-15.10 181.26-9.91L181.26-9.91L181.26-9.91Q180.43-4.73 179.60-0.28L179.60-0.28L179.60-0.28Q180.30-0.28 180.90-1L180.90-1L180.90-1Q181.50-1.73 181.75-2.45L181.75-2.45L182.03-3.20L182.47-3L182.47-3Q182.40-2.65 182.09-1.99L182.09-1.99L182.09-1.99Q181.78-1.33 181.45-0.90" fill="#a2d895" stroke="none" stroke-width="none" transform="translate(-125.35003662109375,6.882459043305504)" style="transform:matrix(1, 0, 0, 1, -125.35, 6.88246);fill:rgb(195, 213, 130);animation-play-state:paused" ></path></g>
<g class="path" style="transform-origin:63.525px 4.31746px;animation-timing-function:linear;animation-play-state:paused;animation-name:static-8682f257-8b94-4775-8011-22e0c7f6f2d3;animation-iteration-count:infinite;animation-fill-mode:forwards;animation-duration:1s;animation-delay:-0.227586s" ><path d="M192.05 2.73L192.05 2.73L192.05 2.73Q192.95 2.73 193.60 2.02L193.60 2.02L193.95 2.33L193.95 2.33Q193.35 3.18 192.05 3.18L192.05 3.18L192.05 3.18Q191.50 3.18 190.92 3.05L190.92 3.05L190.92 3.05Q189.22 4.60 186.57 4.60L186.57 4.60L186.57 4.60Q185 4.60 184.14 4.06L184.14 4.06L184.14 4.06Q183.28 3.53 183.28 2.66L183.28 2.66L183.28 2.66Q183.28 1.80 183.81 1.29L183.81 1.29L183.81 1.29Q184.35 0.78 185.72 0.78L185.72 0.78L185.72 0.78Q187.10 0.78 189.35 1.90L189.35 1.90L190.13-2.25L190.13-2.25Q189-0.18 187.22-0.18L187.22-0.18L187.22-0.18Q183.82-0.18 183.82-3.53L183.82-3.53L183.82-3.53Q183.82-6.33 185.24-8.03L185.24-8.03L185.24-8.03Q186.65-9.73 188.85-9.73L188.85-9.73L188.85-9.73Q190.13-9.73 190.82-8.95L190.82-8.95L190.82-8.95Q191.03-8.72 191.22-8.28L191.22-8.28L191.45-9.50L191.45-9.50Q193.30-9.50 194.15-9.65L194.15-9.65L194.47-9.73L192.82-0.50L192.82-0.50Q192.45 1.45 191.32 2.65L191.32 2.65L191.32 2.65Q191.65 2.73 192.05 2.73zM186.65-2.75L186.65-2.75Q186.65-1.60 186.88-1.21L186.88-1.21L186.88-1.21Q187.10-0.83 187.72-0.83L187.72-0.83L187.72-0.83Q188.35-0.83 189-1.50L189-1.50L189-1.50Q189.65-2.18 189.94-2.76L189.94-2.76L189.94-2.76Q190.22-3.35 190.42-3.90L190.42-3.90L190.95-6.78L190.95-6.95L190.95-6.95Q190.95-9.25 188.85-9.25L188.85-9.25L188.85-9.25Q188.05-9.25 187.35-7.08L187.35-7.08L187.35-7.08Q186.65-4.90 186.65-2.75L186.65-2.75zM186.47 4.10L186.47 4.10L186.47 4.10Q188.47 4.10 189.17 2.38L189.17 2.38L188.82 2.20L188.82 2.20Q188.53 2.05 188.46 2.01L188.46 2.01L188.46 2.01Q188.40 1.98 188.13 1.85L188.13 1.85L188.13 1.85Q187.85 1.73 187.72 1.69L187.72 1.69L187.72 1.69Q187.60 1.65 187.34 1.55L187.34 1.55L187.34 1.55Q187.07 1.45 186.90 1.41L186.90 1.41L186.90 1.41Q186.72 1.38 186.50 1.33L186.50 1.33L186.50 1.33Q186.13 1.25 185.40 1.25L185.40 1.25L185.40 1.25Q184.67 1.25 184.24 1.60L184.24 1.60L184.24 1.60Q183.80 1.95 183.80 2.63L183.80 2.63L183.80 2.63Q183.80 3.30 184.53 3.70L184.53 3.70L184.53 3.70Q185.25 4.10 186.47 4.10" fill="#a2d895" stroke="none" stroke-width="none" transform="translate(-125.35003662109375,6.882459043305504)" style="transform:matrix(1, 0, 0, 1, -125.35, 6.88246);fill:rgb(162, 216, 149);animation-play-state:paused" ></path></g>
<g class="path" style="transform-origin:74.795px 2.01746px;animation-timing-function:linear;animation-play-state:paused;animation-name:static-8682f257-8b94-4775-8011-22e0c7f6f2d3;animation-iteration-count:infinite;animation-fill-mode:forwards;animation-duration:1s;animation-delay:-0.204828s" ><path d="M195.97-8.53L195.60-8.83L195.60-8.83Q196.35-9.73 197.49-9.73L197.49-9.73L197.49-9.73Q198.63-9.73 199.25-9.15L199.25-9.15L199.25-9.15Q199.88-8.58 199.88-7.53L199.88-7.53L199.88-7.38L199.88-7.38Q201-9.73 202.80-9.73L202.80-9.73L202.80-9.73Q204.72-9.73 204.72-7.73L204.72-7.73L204.72-7.73Q204.72-6.90 204.17-5.98L204.17-5.98L204.17-5.98Q203.63-5.05 203.07-4.21L203.07-4.21L203.07-4.21Q202.53-3.38 202.53-2.73L202.53-2.73L201.92-2.73L201.92-2.73Q201.92-3.65 203-5.23L203-5.23L203-5.23Q204.07-6.80 204.07-7.66L204.07-7.66L204.07-7.66Q204.07-8.53 203.74-8.84L203.74-8.84L203.74-8.84Q203.40-9.15 202.74-9.15L202.74-9.15L202.74-9.15Q202.07-9.15 201.44-8.58L201.44-8.58L201.44-8.58Q200.80-8 200.38-7.13L200.38-7.13L200.38-7.13Q199.70-5.83 199.47-5L199.47-5L199.47-4.98L198.57 0L195.57 0L197.22-9.22L197.22-9.22Q196.47-9.15 195.97-8.53L195.97-8.53" fill="#a2d895" stroke="none" stroke-width="none" transform="translate(-125.35003662109375,6.882459043305504)" style="transform:matrix(1, 0, 0, 1, -125.35, 6.88246);fill:rgb(117, 179, 76);animation-play-state:paused" ></path></g>
<g class="path" style="transform-origin:84.2px 2.13246px;animation-timing-function:linear;animation-play-state:paused;animation-name:static-8682f257-8b94-4775-8011-22e0c7f6f2d3;animation-iteration-count:infinite;animation-fill-mode:forwards;animation-duration:1s;animation-delay:-0.182069s" ><path d="M210.65-9.73L210.65-9.73L210.65-9.73Q213.83-9.73 213.83-7.20L213.83-7.20L213.83-7.20Q213.83-5.63 212.34-4.81L212.34-4.81L212.34-4.81Q210.85-4 208.10-3.98L208.10-3.98L208.10-3.98Q208.05-3.08 208.05-2.55L208.05-2.55L208.05-2.55Q208.05-1.43 208.56-0.89L208.56-0.89L208.56-0.89Q209.08-0.35 209.85-0.35L209.85-0.35L209.85-0.35Q210.63-0.35 211.26-0.65L211.26-0.65L211.26-0.65Q211.90-0.95 212.28-1.36L212.28-1.36L212.28-1.36Q212.65-1.78 212.93-2.23L212.93-2.23L212.93-2.23Q213.43-3.05 213.43-3.28L213.43-3.28L213.88-3.08L213.88-3.08Q213.80-2.68 213.43-2.01L213.43-2.01L213.43-2.01Q213.05-1.35 212.60-0.93L212.60-0.93L212.60-0.93Q212.15-0.50 211.28-0.14L211.28-0.14L211.28-0.14Q210.40 0.23 209.33 0.23L209.33 0.23L209.33 0.23Q207.30 0.23 206.26-0.74L206.26-0.74L206.26-0.74Q205.22-1.70 205.22-3.38L205.22-3.38L205.22-3.38Q205.22-6.35 206.70-8.04L206.70-8.04L206.70-8.04Q208.18-9.73 210.65-9.73zM213.20-7.20L213.20-7.20Q213.20-8.03 212.71-8.56L212.71-8.56L212.71-8.56Q212.22-9.10 211.26-9.10L211.26-9.10L211.26-9.10Q210.30-9.10 209.39-7.95L209.39-7.95L209.39-7.95Q208.47-6.80 208.18-4.55L208.18-4.55L208.18-4.55Q213.20-4.58 213.20-7.20L213.20-7.20" fill="#a2d895" stroke="none" stroke-width="none" transform="translate(-125.35003662109375,6.882459043305504)" style="transform:matrix(1, 0, 0, 1, -125.35, 6.88246);fill:rgb(195, 213, 130);animation-play-state:paused" ></path></g>
<g class="path" style="transform-origin:92.365px 2.13246px;animation-timing-function:linear;animation-play-state:paused;animation-name:static-8682f257-8b94-4775-8011-22e0c7f6f2d3;animation-iteration-count:infinite;animation-fill-mode:forwards;animation-duration:1s;animation-delay:-0.15931s" ><path d="M219.80-0.68L219.80-0.68Q219.05 0.23 217.93 0.23L217.93 0.23L217.93 0.23Q216.80 0.23 216.16-0.35L216.16-0.35L216.16-0.35Q215.53-0.93 215.53-1.85L215.53-1.85L215.53-1.85Q215.53-2.18 215.93-4.58L215.93-4.58L216.75-9.05L215.70-9.05L215.75-9.50L216.83-9.50L216.83-9.50Q218.68-9.50 219.55-9.65L219.55-9.65L219.90-9.73L218.18-0.28L218.18-0.28Q218.93-0.35 219.43-0.98L219.43-0.98L219.80-0.68" fill="#a2d895" stroke="none" stroke-width="none" transform="translate(-125.35003662109375,6.882459043305504)" style="transform:matrix(1, 0, 0, 1, -125.35, 6.88246);fill:rgb(162, 216, 149);animation-play-state:paused" ></path></g>
<g class="path" style="transform-origin:93.54px -6.53254px;animation-timing-function:linear;animation-play-state:paused;animation-name:static-8682f257-8b94-4775-8011-22e0c7f6f2d3;animation-iteration-count:infinite;animation-fill-mode:forwards;animation-duration:1s;animation-delay:-0.136552s" ><path d="M217.60-12.13L217.60-12.13L217.60-12.13Q217.08-12.65 217.08-13.40L217.08-13.40L217.08-13.40Q217.08-14.15 217.60-14.69L217.60-14.69L217.60-14.69Q218.13-15.23 218.88-15.23L218.88-15.23L218.88-15.23Q219.63-15.23 220.16-14.69L220.16-14.69L220.16-14.69Q220.70-14.15 220.70-13.40L220.70-13.40L220.70-13.40Q220.70-12.65 220.16-12.13L220.16-12.13L220.16-12.13Q219.63-11.60 218.88-11.60L218.88-11.60L218.88-11.60Q218.13-11.60 217.60-12.13" fill="#a2d895" stroke="none" stroke-width="none" transform="translate(-125.35003662109375,6.882459043305504)" style="transform:matrix(1, 0, 0, 1, -125.35, 6.88246);fill:rgb(117, 179, 76);animation-play-state:paused" ></path></g>
<g class="path" style="transform-origin:100.4px 2.13246px;animation-timing-function:linear;animation-play-state:paused;animation-name:static-8682f257-8b94-4775-8011-22e0c7f6f2d3;animation-iteration-count:infinite;animation-fill-mode:forwards;animation-duration:1s;animation-delay:-0.113793s" ><path d="M227.25-5.23L227.25-5.23L227.25-5.23Q226.73-5.75 226.73-6.50L226.73-6.50L226.73-6.50Q226.73-7.25 227.25-7.79L227.25-7.79L227.25-7.79Q227.78-8.33 228.53-8.33L228.53-8.33L228.53-8.33Q228.75-8.33 229.10-8.22L229.10-8.22L229.10-8.22Q228.63-9.10 227.33-9.10L227.33-9.10L227.33-9.10Q226.03-9.10 225.03-7.45L225.03-7.45L225.03-7.45Q224.03-5.80 224.03-2.55L224.03-2.55L224.03-2.55Q224.03-1.43 224.54-0.89L224.54-0.89L224.54-0.89Q225.05-0.35 225.83-0.35L225.83-0.35L225.83-0.35Q226.60-0.35 227.24-0.65L227.24-0.65L227.24-0.65Q227.88-0.95 228.25-1.36L228.25-1.36L228.25-1.36Q228.63-1.78 228.90-2.23L228.90-2.23L228.90-2.23Q229.40-3.05 229.40-3.28L229.40-3.28L229.85-3.08L229.85-3.08Q229.78-2.68 229.40-2.01L229.40-2.01L229.40-2.01Q229.03-1.35 228.58-0.93L228.58-0.93L228.58-0.93Q228.13-0.50 227.25-0.14L227.25-0.14L227.25-0.14Q226.38 0.23 225.30 0.23L225.30 0.23L225.30 0.23Q223.28 0.23 222.24-0.74L222.24-0.74L222.24-0.74Q221.20-1.70 221.20-3.38L221.20-3.38L221.20-3.38Q221.20-6.35 222.69-8.04L222.69-8.04L222.69-8.04Q224.18-9.73 226.73-9.73L226.73-9.73L226.73-9.73Q228.45-9.73 229.38-8.85L229.38-8.85L229.38-8.85Q230.30-7.98 230.30-6.55L230.30-6.55L230.30-6.55Q230.30-5.65 229.76-5.18L229.76-5.18L229.76-5.18Q229.23-4.70 228.50-4.70L228.50-4.70L228.50-4.70Q227.78-4.70 227.25-5.23" fill="#a2d895" stroke="none" stroke-width="none" transform="translate(-125.35003662109375,6.882459043305504)" style="transform:matrix(1, 0, 0, 1, -125.35, 6.88246);fill:rgb(195, 213, 130);animation-play-state:paused" ></path></g>
<g class="path" style="transform-origin:111.375px -1.10254px;animation-timing-function:linear;animation-play-state:paused;animation-name:static-8682f257-8b94-4775-8011-22e0c7f6f2d3;animation-iteration-count:infinite;animation-fill-mode:forwards;animation-duration:1s;animation-delay:-0.0910345s" ><path d="M240.73-0.28L240.73-0.28L240.73-0.28Q241.33-0.28 241.98-0.98L241.98-0.98L242.35-0.68L242.35-0.68Q242.18-0.33 241.58-0.05L241.58-0.05L241.58-0.05Q240.98 0.23 240.25 0.23L240.25 0.23L240.25 0.23Q237.98 0.23 237.98-1.83L237.98-1.83L237.98-1.83Q237.98-2.70 238.43-4.95L238.43-4.95L238.43-4.95Q238.88-7.20 238.88-7.90L238.88-7.90L238.88-7.90Q238.88-8.97 237.85-8.97L237.85-8.97L237.85-8.97Q237.00-8.97 236.21-7.83L236.21-7.83L236.21-7.83Q235.43-6.68 234.93-4.70L234.93-4.70L234.10 0L231.10 0L233.88-15.70L233.88-15.70Q233.13-15.63 232.63-15L232.63-15L232.25-15.30L232.25-15.30Q233.00-16.20 234.14-16.20L234.14-16.20L234.14-16.20Q235.28-16.20 235.90-15.63L235.90-15.63L235.90-15.63Q236.53-15.05 236.53-14L236.53-14L236.53-14Q236.53-13.80 236.48-13.35L236.48-13.35L235.43-7.43L235.43-7.43Q236.45-9.73 238.60-9.73L238.60-9.73L238.60-9.73Q240.08-9.73 240.90-8.89L240.90-8.89L240.90-8.89Q241.73-8.05 241.73-6.58L241.73-6.58L241.73-6.58Q241.73-5.80 241.25-3.59L241.25-3.59L241.25-3.59Q240.78-1.38 240.73-0.28" fill="#a2d895" stroke="none" stroke-width="none" transform="translate(-125.35003662109375,6.882459043305504)" style="transform:matrix(1, 0, 0, 1, -125.35, 6.88246);fill:rgb(162, 216, 149);animation-play-state:paused" ></path></g>
<g class="path" style="transform-origin:119.34px 5.81746px;animation-timing-function:linear;animation-play-state:paused;animation-name:static-8682f257-8b94-4775-8011-22e0c7f6f2d3;animation-iteration-count:infinite;animation-fill-mode:forwards;animation-duration:1s;animation-delay:-0.0682759s" ><path d="M243.79-0.16L243.79-0.16L243.79-0.16Q243.43-0.53 243.43-1.05L243.43-1.05L243.43-1.05Q243.43-1.58 243.79-1.95L243.79-1.95L243.79-1.95Q244.15-2.33 244.68-2.33L244.68-2.33L244.68-2.33Q245.20-2.33 245.58-1.95L245.58-1.95L245.58-1.95Q245.95-1.58 245.95-1.05L245.95-1.05L245.95-1.05Q245.95-0.53 245.58-0.16L245.58-0.16L245.58-0.16Q245.20 0.20 244.68 0.20L244.68 0.20L244.68 0.20Q244.15 0.20 243.79-0.16" fill="#a2d895" stroke="none" stroke-width="none" transform="translate(-125.35003662109375,6.882459043305504)" style="transform:matrix(1, 0, 0, 1, -125.35, 6.88246);fill:rgb(117, 179, 76);animation-play-state:paused" ></path></g>
<g class="path" style="transform-origin:120.93px -2.31754px;animation-timing-function:linear;animation-play-state:paused;animation-name:static-8682f257-8b94-4775-8011-22e0c7f6f2d3;animation-iteration-count:infinite;animation-fill-mode:forwards;animation-duration:1s;animation-delay:-0.0455172s" ><path d="M245.50-3.05L244.83-3.13L247.00-15.35L247.73-15.25L245.50-3.05" fill="#a2d895" stroke="none" stroke-width="none" transform="translate(-125.35003662109375,6.882459043305504)" style="transform:matrix(1, 0, 0, 1, -125.35, 6.88246);fill:rgb(195, 213, 130);animation-play-state:paused" ></path></g>
<g class="path" style="transform-origin:124.44px 5.81746px;animation-timing-function:linear;animation-play-state:paused;animation-name:static-8682f257-8b94-4775-8011-22e0c7f6f2d3;animation-iteration-count:infinite;animation-fill-mode:forwards;animation-duration:1s;animation-delay:-0.0227586s" ><path d="M248.89-0.16L248.89-0.16L248.89-0.16Q248.53-0.53 248.53-1.05L248.53-1.05L248.53-1.05Q248.53-1.58 248.89-1.95L248.89-1.95L248.89-1.95Q249.25-2.33 249.78-2.33L249.78-2.33L249.78-2.33Q250.30-2.33 250.68-1.95L250.68-1.95L250.68-1.95Q251.05-1.58 251.05-1.05L251.05-1.05L251.05-1.05Q251.05-0.53 250.68-0.16L250.68-0.16L250.68-0.16Q250.30 0.20 249.78 0.20L249.78 0.20L249.78 0.20Q249.25 0.20 248.89-0.16" fill="#a2d895" stroke="none" stroke-width="none" transform="translate(-125.35003662109375,6.882459043305504)" style="transform:matrix(1, 0, 0, 1, -125.35, 6.88246);fill:rgb(162, 216, 149);animation-play-state:paused" ></path></g>
<g class="path" style="transform-origin:126.03px -2.31754px;animation-timing-function:linear;animation-play-state:paused;animation-name:static-8682f257-8b94-4775-8011-22e0c7f6f2d3;animation-iteration-count:infinite;animation-fill-mode:forwards;animation-duration:1s" ><path d="M250.60-3.05L249.93-3.13L252.10-15.35L252.83-15.25L250.60-3.05" fill="#a2d895" stroke="none" stroke-width="none" transform="translate(-125.35003662109375,6.882459043305504)" style="transform:matrix(1, 0, 0, 1, -125.35, 6.88246);fill:rgb(117, 179, 76);animation-play-state:paused" ></path></g></g></g></g></svg>